<svg xmlns="http://www.w3.org/2000/svg" xmlns:svg="http://www.w3.org/2000/svg" xmlns:xlink="http://www.w3.org/1999/xlink" id="svg11300" width="32" height="32" version="1.0"><defs id="defs3"><linearGradient id="linearGradient47870"><stop id="stop47872" offset="0" style="stop-color:#000;stop-opacity:0"/><stop id="stop47878" offset=".5" style="stop-color:#000;stop-opacity:1"/><stop id="stop47874" offset="1" style="stop-color:#000;stop-opacity:0"/></linearGradient><linearGradient id="linearGradient51765"><stop id="stop51767" offset="0" style="stop-color:#000;stop-opacity:1"/><stop id="stop51769" offset="1" style="stop-color:#000;stop-opacity:0"/></linearGradient><linearGradient id="linearGradient3268" x1="32.085" x2="32.085" y1="-14.402" y2="-5.563" gradientTransform="matrix(0.9788196,0,0,0.7154223,-8.5008021,52.112719)" gradientUnits="userSpaceOnUse" xlink:href="#linearGradient47870"/><radialGradient id="radialGradient3270" cx="51.438" cy="-12.203" r="2.172" fx="51.438" fy="-12.203" gradientTransform="matrix(1.9576392,-8.146468e-7,6.6614241e-7,1.4565793,-59.017557,62.738067)" gradientUnits="userSpaceOnUse" xlink:href="#linearGradient51765"/><radialGradient id="radialGradient3272" cx="51.438" cy="-12.203" r="2.172" fx="51.438" fy="-12.203" gradientTransform="matrix(-1.9576392,-9.2540676e-8,-1.2888861e-7,1.4565793,110.01781,62.73803)" gradientUnits="userSpaceOnUse" xlink:href="#linearGradient51765"/><linearGradient id="linearGradient2781"><stop id="stop2783" offset="0" style="stop-color:#d3d7cf;stop-opacity:1"/><stop id="stop2785" offset="1" style="stop-color:#eeeeec;stop-opacity:1"/></linearGradient><linearGradient id="linearGradient3674"><stop id="stop3676" offset="0" style="stop-color:#3465a4;stop-opacity:1"/><stop id="stop3678" offset="1" style="stop-color:#729fcf;stop-opacity:1"/></linearGradient><linearGradient id="linearGradient3690"><stop id="stop3692" offset="0" style="stop-color:white;stop-opacity:1"/><stop id="stop3694" offset="1" style="stop-color:white;stop-opacity:.46875"/></linearGradient><linearGradient id="linearGradient2305" x1="9.5" x2="9.5" y1="16.264" y2="13.409" gradientTransform="matrix(0.8505521,0,0,0.8967323,-5.2134653,-5.9891305)" gradientUnits="userSpaceOnUse" xlink:href="#linearGradient3690"/><linearGradient id="linearGradient2308" x1="23.069" x2="23.069" y1="6.799" y2="12.403" gradientTransform="matrix(0.8784886,0,0,0.8261832,-5.977824,-5.522415)" gradientUnits="userSpaceOnUse" xlink:href="#linearGradient3674"/><linearGradient id="linearGradient2311" x1="24.926" x2="24.926" y1="40" y2="19.539" gradientTransform="matrix(0.8543726,0,0,0.9180333,-5.4655266,-6.7622993)" gradientUnits="userSpaceOnUse" xlink:href="#linearGradient2781"/></defs><metadata id="metadata4"/><g id="layer1"><g id="g54724" transform="matrix(0.7740485,0,0,0.9380092,-3.6856277,-13.269584)"><rect width="32.357" height="6.323" x="9.322" y="41.809" style="opacity:.3;fill:url(#linearGradient3268);fill-opacity:1;fill-rule:evenodd;stroke:none" id="rect46899"/><path d="M 41.6785,41.799698 L 41.6785,48.126714 C 44.022298,48.102828 45.930248,46.705313 45.930248,44.974385 C 45.930248,43.243458 44.022299,41.823584 41.6785,41.799698 z" style="opacity:.3;fill:url(#radialGradient3270);fill-opacity:1;fill-rule:evenodd;stroke:none" id="path48849"/><path d="M 9.3217476,41.799698 L 9.3217476,48.126714 C 6.9779494,48.102828 5.07,46.705313 5.07,44.974385 C 5.07,43.243458 6.9779484,41.823584 9.3217476,41.799698 z" style="opacity:.3;fill:url(#radialGradient3272);fill-opacity:1;fill-rule:evenodd;stroke:none" id="path52742"/></g><path style="fill:url(#linearGradient2311);fill-opacity:1;stroke:#888a85;stroke-width:1.00000012;stroke-miterlimit:4;stroke-opacity:1" id="rect1915" d="M 3.1678443,1.5000002 L 28.619763,1.5000002 C 29.379409,1.5000002 29.990966,2.1571253 29.990966,2.9733751 C 29.510367,3.8302388 30.238341,4.5373906 30.492155,6.0545418 C 25.440448,16.617415 35.042963,16.404809 29.990966,28.026625 C 29.990966,28.842876 29.379409,29.500001 28.619763,29.500001 L 3.1678443,29.500001 C 2.4081972,29.500001 1.487281,28.864973 1.487281,28.048722 C 7.4948986,17.075687 -2.4347259,17.110734 1.4535422,6.2019548 C 1.7583864,5.3466953 1.5270385,4.0470088 1.7966402,2.9733751 C 1.7966402,2.1571253 2.4081972,1.5000002 3.1678443,1.5000002 z"/><path style="fill:url(#linearGradient2308);fill-opacity:1;stroke:#204a87;stroke-width:1.00000024;stroke-miterlimit:4;stroke-opacity:1" id="path1917" d="M 1.5117669,5.9181841 L 1.4893278,3.1525126 C 1.4893278,2.2371017 2.2729396,1.5001463 3.246305,1.5001463 L 28.722473,1.5001463 C 29.695839,1.5001463 30.47945,2.2371017 30.47945,3.1525126 L 30.47945,6.0692116"/><path style="opacity:.8;fill:none;stroke:url(#linearGradient2305);stroke-width:1.00000072;stroke-miterlimit:4;stroke-opacity:1" id="rect1919" d="M 3.598191,2.4985163 L 28.447365,2.5159044 C 29.025691,2.5159044 29.491275,2.98471 29.491275,3.5670382 C 29.50016,4.9903287 29.560516,4.8359011 29.535203,5.859811 C 24.320369,15.811687 33.837798,17.047457 29.204293,27.579184 C 29.204293,28.161512 29.090064,28.495849 28.511737,28.495849 L 3.910691,28.535077 C 3.332364,28.535077 2.8667792,28.351522 2.8667792,27.769194 C 7.9070162,16.864304 -0.92457951,16.520579 2.2671726,6.8995453 C 2.5918733,5.9207861 2.4754705,4.9259079 2.4879879,3.5939384 C 2.4879879,3.0116102 3.019864,2.4985163 3.598191,2.4985163 z"/></g></svg>