<svg xmlns="http://www.w3.org/2000/svg" xmlns:svg="http://www.w3.org/2000/svg" xmlns:xlink="http://www.w3.org/1999/xlink" id="svg2" width="32" height="32" version="1.0"><defs id="defs4"><linearGradient id="linearGradient3993"><stop id="stop3995" offset="0" style="stop-color:#fff;stop-opacity:1"/><stop id="stop3997" offset="1" style="stop-color:#000;stop-opacity:0"/></linearGradient><linearGradient id="linearGradient1312"><stop style="stop-color:#fff;stop-opacity:1" id="stop1314" offset="0"/><stop style="stop-color:#fff;stop-opacity:0" id="stop1316" offset="1"/></linearGradient><radialGradient id="radialGradient3953" cx="66.835" cy="28.967" r="12.972" fx="66.835" fy="28.967" gradientTransform="matrix(0.8233355,-1.2518708e-2,1.2022338e-2,0.8417463,-38.865246,-16.798081)" gradientUnits="userSpaceOnUse" xlink:href="#linearGradient1312"/><radialGradient id="radialGradient4015" cx="-10.089" cy="33.507" r="13.995" fx="-10.089" fy="33.507" gradientTransform="matrix(0.8234253,0,0,0.6724077,19.204017,-2.0093043)" gradientUnits="userSpaceOnUse" xlink:href="#linearGradient3993"/><radialGradient id="radialGradient3696" cx="53.214" cy="59.071" r="13.995" fx="53.214" fy="59.071" gradientTransform="matrix(0.8234253,0,0,1.1030619,-27.628296,-48.734796)" gradientUnits="userSpaceOnUse" xlink:href="#linearGradient1312"/></defs><metadata id="metadata7"/><g id="layer1"><path style="opacity:.6;fill:url(#radialGradient4015);fill-opacity:1;fill-rule:evenodd;stroke:none;stroke-width:1;stroke-linecap:butt;stroke-linejoin:miter;stroke-miterlimit:4;stroke-dasharray:none;stroke-opacity:1" id="path3965" d="M 16.679986,27.654587 C 1.5142931,17.522294 13.301002,15.715913 24.310633,12.931162 C 30.832029,20.987487 26.827148,30.897415 16.8762,31.742652 C 2.8538291,32.134036 2.8806085,19.85736 6.4325877,13.844342 C 7.0696804,21.626836 5.3156952,28.162062 16.679986,27.654587 z"/><path style="fill:#204a87;fill-opacity:.75;fill-rule:evenodd;stroke:#204a87;stroke-width:1;stroke-linecap:butt;stroke-linejoin:miter;stroke-miterlimit:4;stroke-dasharray:none;stroke-opacity:1" id="rect1307" d="M 15.337764,0.48173661 L 24.365294,12.535695 C 30.886692,20.59202 26.88181,30.501948 16.930861,31.347185 C 2.9084908,31.738569 2.9352701,19.461893 6.4872494,13.448875 L 15.337764,0.48173661 z"/><path style="fill:url(#radialGradient3696);fill-opacity:1;fill-rule:evenodd;stroke:none;stroke-width:1;stroke-linecap:butt;stroke-linejoin:miter;stroke-miterlimit:4;stroke-dasharray:none;stroke-opacity:1" id="path3955" d="M 15.251119,28.087238 C 19.089856,28.093582 23.125479,25.919574 24.616457,22.137501 C 25.493006,19.616337 25.00782,16.770781 23.783323,14.46383 C 26.253815,17.32385 27.75847,21.392668 26.780784,25.205882 C 25.653784,28.886141 22.059617,31.289129 18.445622,31.671263 C 14.487709,32.310261 10.05627,31.467109 7.1329353,28.473371 C 4.3925649,25.364514 4.0648304,20.653446 5.3915022,16.817233 C 5.7139893,15.821153 6.1382239,14.860329 6.6531476,13.954506 C 6.7237157,17.820449 6.5334841,21.912944 8.3037778,25.452412 C 9.7808914,27.776427 12.756169,28.287913 15.251119,28.087238 z"/><path style="opacity:.62999998;fill:url(#radialGradient3953);fill-opacity:1;fill-rule:evenodd;stroke:none;stroke-width:1;stroke-linecap:butt;stroke-linejoin:miter;stroke-miterlimit:4;stroke-dasharray:none;stroke-opacity:1" id="path3945" d="M 15.430143,1.5183652 L 24.457672,13.572323 C 30.97907,21.628648 28.749122,18.40106 18.798172,19.246296 C 16.097901,10.686602 10.37966,11.244015 6.5796281,14.485503 L 15.430143,1.5183652 z"/><path style="fill:none;fill-opacity:1;fill-rule:evenodd;stroke:#fff;stroke-width:.99999982;stroke-linecap:butt;stroke-linejoin:miter;stroke-miterlimit:4;stroke-dasharray:none;stroke-opacity:.56493506" id="path3066" d="M 15.349945,2.2150601 L 23.623633,13.225494 C 29.60047,20.584371 25.930013,29.636382 16.810007,30.408444 C 3.9585673,30.765942 3.9831059,19.552082 7.2384798,14.059614 L 15.349945,2.2150601 z"/></g></svg>