<svg xmlns="http://www.w3.org/2000/svg" xmlns:svg="http://www.w3.org/2000/svg" xmlns:xlink="http://www.w3.org/1999/xlink" id="svg6009" width="32" height="32" version="1.0"><defs id="defs6011"><linearGradient id="linearGradient5048"><stop id="stop5050" offset="0" style="stop-color:black;stop-opacity:0"/><stop style="stop-color:black;stop-opacity:1" id="stop5056" offset=".5"/><stop id="stop5052" offset="1" style="stop-color:black;stop-opacity:0"/></linearGradient><linearGradient id="linearGradient5060"><stop id="stop5062" offset="0" style="stop-color:black;stop-opacity:1"/><stop id="stop5064" offset="1" style="stop-color:black;stop-opacity:0"/></linearGradient><linearGradient id="linearGradient3087"><stop id="stop3090" offset="0" style="stop-color:white;stop-opacity:1"/><stop style="stop-color:white;stop-opacity:0" id="stop3092" offset=".471"/><stop id="stop3094" offset="1" style="stop-color:white;stop-opacity:1"/></linearGradient><linearGradient id="linearGradient3832"><stop id="stop3834" offset="0" style="stop-color:#fff;stop-opacity:1"/><stop id="stop3836" offset="1" style="stop-color:#e0e0e0;stop-opacity:1"/></linearGradient><linearGradient id="linearGradient14171" x1="17.881" x2="17.881" y1="11.073" y2="21.768" gradientTransform="matrix(1.5539569,0,0,1.3236254,-5.0532134,-4.0765047)" gradientUnits="userSpaceOnUse" xlink:href="#linearGradient3832"/><linearGradient id="linearGradient6062" x1="38.002" x2="37.325" y1="107.473" y2="39.979" gradientTransform="matrix(0.7091202,0,0,0.7182237,-11.962251,-39.616431)" gradientUnits="userSpaceOnUse" xlink:href="#linearGradient3087"/><linearGradient id="linearGradient7926" x1="302.857" x2="302.857" y1="366.648" y2="609.505" gradientTransform="matrix(6.516804e-2,0,0,3.6238245e-2,0.4781241,9.8759232)" gradientUnits="userSpaceOnUse" xlink:href="#linearGradient5048"/><radialGradient id="radialGradient7928" cx="605.714" cy="486.648" r="117.143" fx="605.714" fy="486.648" gradientTransform="matrix(6.516804e-2,0,0,3.6238245e-2,0.4909461,9.8759232)" gradientUnits="userSpaceOnUse" xlink:href="#linearGradient5060"/><radialGradient id="radialGradient7930" cx="605.714" cy="486.648" r="117.143" fx="605.714" fy="486.648" gradientTransform="matrix(-6.6558309e-2,0,0,3.6238245e-2,48.398264,9.9126842)" gradientUnits="userSpaceOnUse" xlink:href="#linearGradient5060"/></defs><metadata id="metadata6014"/><g id="layer1"><g id="g7921" transform="scale(0.6677012,1)"><rect style="opacity:.40206185;fill:url(#linearGradient7926);fill-opacity:1;fill-rule:nonzero;stroke:none;marker:none;marker-start:none;marker-mid:none;marker-end:none;visibility:visible;display:inline;overflow:visible" id="rect6667" width="31.467" height="8.801" x="8.298" y="23.163"/><path style="opacity:.40206185;fill:url(#radialGradient7928);fill-opacity:1;fill-rule:nonzero;stroke:none;marker:none;marker-start:none;marker-mid:none;marker-end:none;visibility:visible;display:inline;overflow:visible" id="path6669" d="m 39.765148,23.162903 c 0,0 0,8.800233 0,8.800233 3.35599,0.016566 8.113153,-1.971686 8.113153,-4.400682 0,-2.428998 -3.745039,-4.399551 -8.113153,-4.399551 z"/><path id="path6671" d="m 8.2862397,23.199665 c 0,0 0,8.800232 0,8.800232 C 4.8586509,32.016464 0,30.028211 0,27.599215 c 0,-2.428997 3.8249303,-4.39955 8.2862397,-4.39955 z" style="opacity:.40206185;fill:url(#radialGradient7930);fill-opacity:1;fill-rule:nonzero;stroke:none;marker:none;marker-start:none;marker-mid:none;marker-end:none;visibility:visible;display:inline;overflow:visible"/></g><path style="fill:#a40000;fill-opacity:1;fill-rule:evenodd;stroke:#8d8d8d;stroke-width:.99999982;stroke-linecap:butt;stroke-linejoin:miter;stroke-miterlimit:4;stroke-opacity:1;stroke-dasharray:none;stroke-dashoffset:0;marker:none;marker-start:none;marker-mid:none;marker-end:none;visibility:visible;display:inline;overflow:visible" id="rect3818" d="M 2.6063256,4.0146722 C 10.365993,7.422687 25.955111,-4.0280463 30.510632,5.1416164 l 0,23.231441 C 30.510632,28.997383 30.01721,29.5 29.404307,29.5 l -26.797982,0 C 1.9934219,29.500001 1.5000001,28.997384 1.5000001,28.373058 l 0,-1.4519662 0,-4.294089 0,-1.4519649 0,-0.061805322 0,-1.4519656 0,-1.4519642 0,-1.4519662 0,-11.61572 c 0,-0.62432777 0.49342178,-1.1269444 1.1063255,-1.1269444 z"/><path style="fill:url(#linearGradient6062);fill-opacity:1;fill-rule:evenodd;stroke:none;marker:none;marker-start:none;marker-mid:none;marker-end:none;visibility:visible;display:inline;overflow:visible" id="path13810" d="M 2.5150352,4.5144292 C 11,7.7455561 25.541509,-3.2393653 30.015577,5.2624383 l -0.020835,22.661444 c 0.062563,0.79903695 -0.27742,1.1331443 -1.067585,1.0812908 l -25.859607,0 C 2.4656888,29.062789 1.9218167,28.811004 1.9999647,27.923882 l 0,-1.3931467 0,-21.012435 C 1.9966417,5.0708755 1.9333843,4.6642414 2.5150352,4.5144292 z"/><rect style="fill:url(#linearGradient14171);fill-opacity:1;fill-rule:evenodd;stroke:#8d8d8d;stroke-width:.99999994;stroke-linecap:butt;stroke-linejoin:miter;stroke-miterlimit:4;stroke-opacity:1;stroke-dasharray:none;stroke-dashoffset:0;marker:none;marker-start:none;marker-mid:none;marker-end:none;visibility:visible;display:inline;overflow:visible" id="rect14116" width="24.998" height="21.024" x="3.494" y="6.502" rx="1.497" ry="1.371"/><rect id="rect4962" width="23.002" height="19.025" x="4.495" y="7.487" rx=".547" ry=".442" style="fill:none;stroke:#fff;stroke-width:.99999976;stroke-linecap:butt;stroke-linejoin:miter;stroke-miterlimit:4;stroke-opacity:.47878789;stroke-dasharray:none;stroke-dashoffset:0;marker:none;marker-start:none;marker-mid:none;marker-end:none;visibility:visible;display:inline;overflow:visible"/><rect style="opacity:1;fill:#eeeeec;fill-opacity:1;stroke:none" id="rect6069" width="1.974" height="1.979" x="24.019" y="3" rx=".884" ry=".809"/><rect id="rect7932" width="1.974" height="1.979" x="21.534" y="3" rx=".884" ry=".809" style="opacity:1;fill:#eeeeec;fill-opacity:1;stroke:none"/><rect style="opacity:1;fill:#eeeeec;fill-opacity:1;stroke:none" id="rect7934" width="1.974" height="1.979" x="19.019" y="3.031" rx=".884" ry=".809"/></g></svg>