<svg xmlns="http://www.w3.org/2000/svg" xmlns:svg="http://www.w3.org/2000/svg" xmlns:xlink="http://www.w3.org/1999/xlink" id="svg11300" width="32" height="32" version="1.0"><defs id="defs3"><linearGradient id="linearGradient8764"><stop style="stop-color:#2e3436;stop-opacity:1" id="stop8766" offset="0"/><stop style="stop-color:#888a85;stop-opacity:1" id="stop8768" offset="1"/></linearGradient><linearGradient id="linearGradient8748"><stop style="stop-color:#000;stop-opacity:1" id="stop8750" offset="0"/><stop style="stop-color:#000;stop-opacity:0" id="stop8752" offset="1"/></linearGradient><linearGradient id="linearGradient3268"><stop id="stop3270" offset="0" style="stop-color:#d3d7cf;stop-opacity:1"/><stop id="stop3272" offset="1" style="stop-color:#888a85;stop-opacity:1"/></linearGradient><linearGradient id="linearGradient3262"><stop id="stop3264" offset="0" style="stop-color:#babdb6;stop-opacity:1"/><stop id="stop3266" offset="1" style="stop-color:#eeeeec;stop-opacity:1"/></linearGradient><radialGradient id="radialGradient3196" cx="14.78" cy="11.347" r="9.597" fx="14.78" fy="11.347" gradientTransform="matrix(0.3808226,1.908979,-2.1288345,0.4425495,29.136629,-24.225003)" gradientUnits="userSpaceOnUse" xlink:href="#linearGradient3268"/><radialGradient id="radialGradient7961" cx="23.753" cy="9.637" r="7.484" fx="23.753" fy="9.637" gradientTransform="matrix(0.2259836,-1.636493,2.0337033,0.2911268,3.8443699,57.007874)" gradientUnits="userSpaceOnUse" xlink:href="#linearGradient3262"/><radialGradient id="radialGradient8754" cx="25.412" cy="44.111" r="16.396" fx="25.412" fy="44.111" gradientTransform="matrix(1,0,0,0.1078167,0,39.355019)" gradientUnits="userSpaceOnUse" xlink:href="#linearGradient8748"/><radialGradient id="radialGradient8762" cx="14.78" cy="11.347" r="9.597" fx="14.78" fy="11.347" gradientTransform="matrix(-0.3977366,1.9303118,2.2233856,0.447495,8.7358103,-24.719436)" gradientUnits="userSpaceOnUse" xlink:href="#linearGradient8764"/><radialGradient id="radialGradient8661" cx="25.412" cy="44.111" r="16.396" fx="25.412" fy="44.111" gradientTransform="matrix(1,0,0,0.1078167,0,39.355019)" gradientUnits="userSpaceOnUse" xlink:href="#linearGradient8748"/></defs><metadata id="metadata4"/><g id="layer1"><path id="rect4784" d="M -50.870059,-7.435916 L -2.870059,-7.435916 L -2.870059,40.564084 L -50.870059,40.564084 L -50.870059,-7.435916 z" style="fill:none;fill-opacity:.75;fill-rule:evenodd;stroke:none;stroke-width:1px;stroke-linecap:butt;stroke-linejoin:miter;stroke-opacity:1"/><path style="fill:#555753;fill-opacity:1;fill-rule:evenodd;stroke:#2e3436;stroke-width:1;stroke-linecap:butt;stroke-linejoin:miter;stroke-miterlimit:4;stroke-dasharray:none;stroke-opacity:1" id="path9766" d="M 0.91514114,14.362417 L 6.4835731,9.2276091 L 6.5088261,19.28764 L 0.91514114,14.362417 z"/><path style="opacity:1;fill:url(#radialGradient7961);fill-opacity:1;fill-rule:evenodd;stroke:#888a85;stroke-width:.99999976;stroke-linecap:round;stroke-linejoin:round;stroke-miterlimit:4;stroke-dasharray:none;stroke-dashoffset:0;stroke-opacity:1" id="path7955" d="M 11.421584,6.5064498 C 9.8051652,6.5064498 8.5034433,7.8074621 8.5034433,9.382761 L 8.5034433,19.623691 C 8.5034433,21.198989 9.8051652,22.5 11.421584,22.5 L 27.56449,22.5 C 29.180905,22.5 30.513673,21.19899 30.513673,19.623691 L 30.513673,9.382761 C 30.513672,7.8074621 29.180908,6.5064498 27.56449,6.5064498 L 11.421584,6.5064498 z"/><path style="opacity:.83658537;fill:url(#radialGradient3196);fill-opacity:1;fill-rule:evenodd;stroke:none;stroke-width:1;stroke-linecap:round;stroke-linejoin:round;stroke-miterlimit:4;stroke-dasharray:none;stroke-dashoffset:0;stroke-opacity:1" id="path10739" d="M 12.24634,9.0196402 C 11.559829,9.0196402 11,9.5416184 11,10.212412 L 11.015625,14.01964 L 19,14.036971 L 19.028237,9.0196402 L 12.24634,9.0196402 z M 20,9.0352652 L 20.00677,14.031237 L 28,14.032629 L 28,10.196787 C 27.999998,9.5259902 27.440171,9.0040152 26.753659,9.0040152 L 20,9.0352652 z M 18.06259,20.01964 L 18.06259,20.01964 z M 20.002888,15.023546 L 20,20.023546 L 26.757565,20.023546 C 27.444076,20.023546 28,19.486782 28,18.815987 L 28.003906,15.017127 L 20.002888,15.023546 z"/><path style="opacity:.82439025;fill:none;fill-opacity:1;fill-rule:evenodd;stroke:#fff;stroke-width:1.35162771;stroke-linecap:round;stroke-linejoin:round;stroke-miterlimit:4;stroke-dasharray:none;stroke-dashoffset:0;stroke-opacity:.73633441" id="path8740" d="M 16.40625,14.15625 C 14.774399,14.15625 13.5,15.429264 13.5,16.9375 L 13.5,30.1875 C 13.5,31.695736 14.774401,32.96875 16.40625,32.96875 L 37.65625,32.96875 C 39.288098,32.968751 40.593751,31.686142 40.59375,30.1875 L 40.59375,16.9375 C 40.59375,15.438859 39.288102,14.15625 37.65625,14.15625 L 16.40625,14.15625 z" transform="matrix(0.7395695,0,0,0.7401281,-0.5030902,-2.9476029)"/><path style="fill:none;fill-opacity:.86386138;fill-rule:evenodd;stroke:#888a85;stroke-width:2.16945529;stroke-linecap:butt;stroke-linejoin:miter;stroke-miterlimit:4;stroke-dasharray:none;stroke-opacity:1" id="path8744" d="M 9.46875,19.21875 L 2.375,24.875 L 9.53125,30.3125 L 9.46875,19.21875 z" transform="matrix(0.4288941,0,0,0.4953914,1.4120889,2.0164085)"/><path style="opacity:.2;fill:url(#radialGradient8754);fill-opacity:1;stroke:none;stroke-width:1;stroke-linecap:round;stroke-linejoin:miter;stroke-miterlimit:4;stroke-dasharray:none;stroke-dashoffset:0;stroke-opacity:.73633441" id="path8746" d="M 41.807692,44.110912 A 16.39604,1.7677671 0 1 1 9.0156116,44.110912 A 16.39604,1.7677671 0 1 1 41.807692,44.110912 z" transform="matrix(0.9728012,0,0,1.6722434,-8.6918048,-45.720319)"/><path id="path8760" d="M 19.006029,15.013147 L 19,20.01964 L 12.301695,20.01964 C 11.584694,20.01964 10.999999,19.465028 11,18.786736 L 10.994476,15.01964 L 19.006029,15.013147 z" style="opacity:.83658537;fill:url(#radialGradient8762);fill-opacity:1;fill-rule:evenodd;stroke:none;stroke-width:1;stroke-linecap:round;stroke-linejoin:round;stroke-miterlimit:4;stroke-dasharray:none;stroke-dashoffset:0;stroke-opacity:1"/></g></svg>