<svg xmlns="http://www.w3.org/2000/svg" xmlns:svg="http://www.w3.org/2000/svg" xmlns:xlink="http://www.w3.org/1999/xlink" id="svg11300" width="32" height="32" version="1.0"><defs id="defs3"><linearGradient id="linearGradient8796"><stop style="stop-color:#4b82c6;stop-opacity:1" id="stop8798" offset="0"/><stop style="stop-color:#3465a4;stop-opacity:1" id="stop8800" offset="1"/></linearGradient><radialGradient id="radialGradient4081" cx="24" cy="23.382" r="19.142" fx="24" fy="23.382" gradientTransform="matrix(1.1536172,0,0,1.1507161,-3.7213829,-2.8865338)" gradientUnits="userSpaceOnUse" xlink:href="#linearGradient4083"/><radialGradient id="radialGradient4020" cx="-33.519" cy="-22.113" r="9.5" fx="-33.519" fy="-22.113" gradientTransform="matrix(0.487739,1.292402,-1.10267,0.497242,-41.77393,32.41492)" gradientUnits="userSpaceOnUse" xlink:href="#linearGradient4032"/><linearGradient id="linearGradient3168" x1="-28.969" x2="-37.197" y1="-25.327" y2="-9.559" gradientUnits="userSpaceOnUse" xlink:href="#linearGradient4026"/><linearGradient id="linearGradient4026"><stop style="stop-color:#fff9c6;stop-opacity:1" id="stop4028" offset="0"/><stop id="stop4042" offset=".542" style="stop-color:#fff28c;stop-opacity:1"/><stop style="stop-color:#ffea85;stop-opacity:1" id="stop4030" offset="1"/></linearGradient><linearGradient id="linearGradient4032"><stop style="stop-color:#fff7c2;stop-opacity:.63829786" id="stop4034" offset="0"/><stop id="stop4036" offset=".594" style="stop-color:#fcaf3e;stop-opacity:.18348624"/><stop style="stop-color:#fcaf3e;stop-opacity:.50458717" id="stop4038" offset=".839"/><stop style="stop-color:#fcaf3e;stop-opacity:1" id="stop4040" offset="1"/></linearGradient><linearGradient id="linearGradient4083"><stop style="stop-color:#fff;stop-opacity:0" id="stop4085" offset="0"/><stop id="stop4089" offset=".75" style="stop-color:#fff;stop-opacity:0"/><stop style="stop-color:#fff;stop-opacity:1" id="stop4087" offset="1"/></linearGradient><radialGradient id="radialGradient8802" cx="11.128" cy="12.775" r="6.578" fx="11.128" fy="12.775" gradientTransform="matrix(0.06544989,1.9976315,-1.8735505,0.0723869,31.796668,-4.3997602)" gradientUnits="userSpaceOnUse" xlink:href="#linearGradient8796"/><radialGradient id="radialGradient8979" cx="11.128" cy="12.775" r="6.578" fx="11.128" fy="12.775" gradientTransform="matrix(0.06544989,1.9976315,-1.8735505,0.0723869,31.796668,-4.3997602)" gradientUnits="userSpaceOnUse" xlink:href="#linearGradient8796"/></defs><metadata id="metadata4"/><g id="layer1"><g id="g8971" transform="translate(-4,0)"><g id="g8967" transform="translate(0,35.000067)"><path style="fill:#999;fill-opacity:1;stroke:none" id="rect8808" d="m 7,-18 0,2 2,0 0,-2 -2,0 z m 2,2 0,2 2,0 0,-2 -2,0 z m 2,0 2,0 0,-2 -2,0 0,2 z m 2,0 0,2 2,0 0,-2 -2,0 z m 2,0 2,0 0,-2 -2,0 0,2 z m 2,0 0,2 2,0 0,-2 -2,0 z m 2,0 2,0 0,-2 -2,0 0,2 z m 0,2 0,2 2,0 0,-2 -2,0 z m 0,2 -2,0 0,2 2,0 0,-2 z m 0,2 0,2 2,0 0,-2 -2,0 z m 0,2 -2,0 0,2 2,0 0,-2 z m 0,2 0,2 2,0 0,-2 -2,0 z m -2,0 -2,0 0,2 2,0 0,-2 z m -2,0 0,-2 -2,0 0,2 2,0 z m -2,0 -2,0 0,2 2,0 0,-2 z m -2,0 0,-2 -2,0 0,2 2,0 z m -2,0 -2,0 0,2 2,0 0,-2 z m 0,-2 0,-2 -2,0 0,2 2,0 z m 0,-2 2,0 0,-2 -2,0 0,2 z m 0,-2 0,-2 -2,0 0,2 2,0 z m 2,0 2,0 0,-2 -2,0 0,2 z m 2,0 0,2 2,0 0,-2 -2,0 z m 2,0 2,0 0,-2 -2,0 0,2 z m 0,2 0,2 2,0 0,-2 -2,0 z m -2,0 -2,0 0,2 2,0 0,-2 z"/><path style="fill:#666;fill-opacity:1;stroke:none" id="rect8812" d="m 9,-18 0,2 2,0 0,-2 -2,0 z m 2,2 0,2 2,0 0,-2 -2,0 z m 2,0 2,0 0,-2 -2,0 0,2 z m 2,0 0,2 2,0 0,-2 -2,0 z m 2,0 2,0 0,-2 -2,0 0,2 z m 2,0 0,2 2,0 0,-2 -2,0 z m 0,2 -2,0 0,2 2,0 0,-2 z m 0,2 0,2 2,0 0,-2 -2,0 z m 0,2 -2,0 0,2 2,0 0,-2 z m 0,2 0,2 2,0 0,-2 -2,0 z m 0,2 -2,0 0,2 2,0 0,-2 z m -2,0 0,-2 -2,0 0,2 2,0 z m -2,0 -2,0 0,2 2,0 0,-2 z m -2,0 0,-2 -2,0 0,2 2,0 z m -2,0 -2,0 0,2 2,0 0,-2 z m -2,0 0,-2 -2,0 0,2 2,0 z m 0,-2 2,0 0,-2 -2,0 0,2 z m 0,-2 0,-2 -2,0 0,2 2,0 z m 0,-2 2,0 0,-2 -2,0 0,2 z m 0,-2 0,-2 -2,0 0,2 2,0 z m 2,2 0,2 2,0 0,-2 -2,0 z m 2,0 2,0 0,-2 -2,0 0,2 z m 2,0 0,2 2,0 0,-2 -2,0 z m 0,2 -2,0 0,2 2,0 0,-2 z"/></g><rect id="rect8018" width="15" height="15" x="6.5" y="16.5" rx="2" ry="2" style="opacity:1;fill:#3465a4;fill-opacity:.54368931;fill-rule:nonzero;stroke:#204a87;stroke-width:1;stroke-opacity:1"/><path id="path8793" d="m 8.4614075,16.985292 c -0.8470426,0 -1.4999171,0.708971 -1.4999171,1.6288 l 0,10.824733 c 0,0.281563 0.065876,0.546153 0.1874898,0.780466 L 20.117016,17.121026 c -0.194889,-0.104528 -0.422385,-0.135734 -0.656214,-0.135734 l -10.9993945,0 z" style="fill:url(#radialGradient8979);fill-opacity:1;fill-rule:nonzero;stroke:none"/><path id="path8806" d="m 11,12 c -0.571297,0 -1,0.428703 -1,1 l 0,9.96875 c 0,0.571297 0.428703,1 1,1 l 11,0 c 0.571297,0 1,-0.428703 1,-1 L 23,13 c 0,-0.571297 -0.428703,-1 -1,-1 l -11,0 z" transform="matrix(1,0,0,1.0861619,-2.5,4.4661248)" style="opacity:.4085366;fill:none;stroke:#fff;stroke-width:.95951718;stroke-opacity:1"/></g><g id="g3113" transform="matrix(0.4436579,0,0,0.4455175,1.3301586,1.2214807)"><g id="g3936"><g id="g4091" style="opacity:.7"><path id="path7492" d="M 24.025547,0.21086314 L 21.352806,7.6965916 C 22.223876,7.5584979 23.115584,7.4867113 24.025547,7.4867113 C 24.935511,7.4867113 25.827218,7.5584978 26.698289,7.6965916 L 24.025547,0.21086314 z M 6.9340708,7.241851 L 10.345332,14.447739 C 11.397869,13.003561 12.691514,11.716817 14.143439,10.669895 L 6.9340708,7.241851 z M 41.152193,7.241851 L 33.907658,10.669895 C 35.359581,11.716817 36.653226,13.003561 37.705762,14.447739 L 41.152193,7.241851 z M 7.3560824,21.583667 L -0.16979412,24.24215 L 7.3560824,26.900633 C 7.2208557,26.045184 7.1450766,25.170171 7.1450766,24.277131 C 7.1450766,23.359953 7.2135954,22.461047 7.3560824,21.583667 z M 40.695012,21.618646 C 40.833847,22.485071 40.906018,23.372022 40.906018,24.277131 C 40.906018,25.18224 40.833847,26.069189 40.695012,26.935612 L 48.220889,24.277131 L 40.695012,21.618646 z M 10.345332,34.106521 L 6.9340708,41.277429 L 14.143439,37.884365 C 12.691514,36.837445 11.397869,35.5507 10.345332,34.106521 z M 37.705762,34.106521 C 36.663155,35.537076 35.377796,36.808154 33.942824,37.849385 L 41.152193,41.277429 L 37.705762,34.106521 z M 21.352806,40.857669 L 24.025547,48.343396 L 26.698289,40.857669 C 25.827218,40.995762 24.935511,41.067549 24.025547,41.067549 C 23.115584,41.067549 22.223876,40.995762 21.352806,40.857669 z" style="fill:#fce94f;fill-opacity:1;stroke:#fcaf3e;stroke-width:2.24927974;stroke-linecap:square;stroke-linejoin:miter;stroke-miterlimit:4;stroke-dasharray:none;stroke-opacity:1"/><path id="path7494" d="M 23.965421,2.6219566 L 22.425565,6.9763081 C 22.932802,6.9313639 23.446525,6.9049253 23.965421,6.9049253 C 24.484316,6.9049253 24.998039,6.9313639 25.505275,6.9763081 L 23.965421,2.6219566 z M 8.8175492,8.9036443 L 10.787131,13.043847 C 11.442078,12.266161 12.189763,11.517677 12.971575,10.866672 L 8.8175492,8.9036443 z M 39.149102,8.9036443 L 34.995076,10.866672 C 35.773942,11.517042 36.52698,12.267573 37.179521,13.043847 L 39.149102,8.9036443 z M 6.8479677,22.466378 L 2.5148887,24.001109 L 6.8479677,25.535839 C 6.8049733,25.042037 6.7763466,24.541655 6.7763466,24.0368 C 6.7763466,23.507317 6.8007247,22.983656 6.8479677,22.466378 z M 41.082873,22.50207 C 41.127967,23.007617 41.154495,23.519631 41.154495,24.0368 C 41.154495,24.553969 41.127967,25.065982 41.082873,25.571531 L 45.415952,24.0368 L 41.082873,22.50207 z M 37.179521,34.994061 C 36.522948,35.777319 35.780026,36.551477 34.995076,37.206929 L 39.149102,39.169956 L 37.179521,34.994061 z M 10.787131,35.029753 L 8.8175492,39.134264 L 12.935764,37.171237 C 12.165616,36.526946 11.433573,35.797339 10.787131,35.029753 z M 22.425565,41.097292 L 23.965421,45.415952 L 25.505275,41.097292 C 24.998039,41.142236 24.484316,41.168674 23.965421,41.168674 C 23.446525,41.168674 22.932802,41.142236 22.425565,41.097292 z" style="fill:none;fill-opacity:1;stroke:url(#radialGradient4081);stroke-width:1.38286138;stroke-linecap:square;stroke-linejoin:miter;stroke-miterlimit:4;stroke-dasharray:none;stroke-opacity:1"/></g><g id="g4046"><g id="g3931"><path style="fill:#ffee54;fill-opacity:1;stroke:#fcaf3e;stroke-width:1.75034022;stroke-linecap:square;stroke-linejoin:miter;stroke-miterlimit:4;stroke-dasharray:none;stroke-opacity:1" id="path7498" d="m -22.5,-17.5 c 0,5.244 -4.256,9.5 -9.5,9.5 -5.244,0 -9.5,-4.256 -9.5,-9.5 0,-5.244 4.256,-9.5 9.5,-9.5 5.244,0 9.5,4.256 9.5,9.5 z" transform="matrix(0.7582773,-1.0384501,1.0343003,0.7613211,66.349688,4.1035245)"/><path style="fill:url(#radialGradient4020);fill-opacity:1;stroke:none;stroke-width:1.01737845;stroke-linecap:square;stroke-linejoin:miter;stroke-miterlimit:4;stroke-dasharray:none;stroke-opacity:1" id="path7500" d="m -22.5,-17.5 c 0,5.244 -4.256,9.5 -9.5,9.5 -5.244,0 -9.5,-4.256 -9.5,-9.5 0,-5.244 4.256,-9.5 9.5,-9.5 5.244,0 9.5,4.256 9.5,9.5 z" transform="matrix(1.1479148,-0.1548924,0.1998675,1.1561898,64.191074,39.299796)"/><path style="fill:none;fill-opacity:1;stroke:url(#linearGradient3168);stroke-width:2.14531803;stroke-linecap:square;stroke-linejoin:miter;stroke-miterlimit:4;stroke-dasharray:none;stroke-opacity:1" id="path7502" d="m -22.5,-17.5 c 0,5.244 -4.256,9.5 -9.5,9.5 -5.244,0 -9.5,-4.256 -9.5,-9.5 0,-5.244 4.256,-9.5 9.5,-9.5 5.244,0 9.5,4.256 9.5,9.5 z" transform="matrix(0.6214329,-0.8434914,0.8476441,0.61839,58.679725,7.8409023)"/></g></g></g></g><g id="g8658" transform="translate(0.99951527,-5.0001099)"><path id="path4954" d="m -22.5,-17.5 c 0,5.244 -4.256,9.5 -9.5,9.5 -5.244,0 -9.5,-4.256 -9.5,-9.5 0,-5.244 4.256,-9.5 9.5,-9.5 5.244,0 9.5,4.256 9.5,9.5 z" transform="matrix(0.4667837,-0.6366496,0.6366985,0.4667487,49.081271,10.796512)" style="fill:#555753;fill-opacity:1;stroke:#170c00;stroke-width:1.26671159;stroke-linecap:square;stroke-linejoin:miter;stroke-miterlimit:4;stroke-opacity:1;stroke-dasharray:none"/><path id="path4956" d="m -22.5,-17.5 c 0,5.244 -4.256,9.5 -9.5,9.5 -5.244,0 -9.5,-4.256 -9.5,-9.5 0,-5.244 4.256,-9.5 9.5,-9.5 5.244,0 9.5,4.256 9.5,9.5 z" transform="matrix(0.4041255,-0.5515807,0.5512328,0.4043806,45.578247,12.430449)" style="fill:none;stroke:silver;stroke-width:1.46259189;stroke-linecap:square;stroke-linejoin:miter;stroke-miterlimit:4;stroke-opacity:1;stroke-dasharray:none"/><path id="path4966" d="m -22.501778,-17.68381 c 0.101463,5.243019 -4.071394,9.5805686 -9.314412,9.6820316 -5.243019,0.101463 -9.580569,-4.0713936 -9.682032,-9.3144116 -0.0018,-0.0926 -0.0022,-0.170925 -0.0014,-0.263536" transform="matrix(-0.00308481,0.5263062,-0.5186489,-0.00312979,13.758618,39.780375)" style="fill:#eeeeec;fill-opacity:1;stroke:none"/></g></g></svg>