<svg xmlns="http://www.w3.org/2000/svg" xmlns:svg="http://www.w3.org/2000/svg" xmlns:xlink="http://www.w3.org/1999/xlink" id="svg7631" width="32" height="32" version="1.0"><defs id="defs3"><linearGradient id="linearGradient5060"><stop style="stop-color:black;stop-opacity:1" id="stop5062" offset="0"/><stop style="stop-color:black;stop-opacity:0" id="stop5064" offset="1"/></linearGradient><linearGradient id="linearGradient5048"><stop style="stop-color:black;stop-opacity:0" id="stop5050" offset="0"/><stop id="stop5056" offset=".5" style="stop-color:black;stop-opacity:1"/><stop style="stop-color:black;stop-opacity:0" id="stop5052" offset="1"/></linearGradient><linearGradient id="linearGradient2818"><stop style="stop-color:#fff;stop-opacity:1" id="stop2820" offset="0"/><stop style="stop-color:#fff;stop-opacity:0" id="stop2822" offset="1"/></linearGradient><linearGradient id="linearGradient2673"><stop id="stop2675" offset="0" style="stop-color:#8b8b8b;stop-opacity:1"/><stop style="stop-color:#d3d9da;stop-opacity:1" id="stop2681" offset=".5"/><stop id="stop2677" offset="1" style="stop-color:#828282;stop-opacity:1"/></linearGradient><linearGradient id="linearGradient2656"><stop id="stop2658" offset="0" style="stop-color:#000;stop-opacity:1"/><stop id="stop2660" offset="1" style="stop-color:#000;stop-opacity:0"/></linearGradient><linearGradient id="linearGradient2631"><stop id="stop2633" offset="0" style="stop-color:#010101;stop-opacity:1"/><stop id="stop2635" offset="1" style="stop-color:#959595;stop-opacity:1"/></linearGradient><linearGradient id="linearGradient2615"><stop id="stop2617" offset="0" style="stop-color:#363d40;stop-opacity:1"/><stop style="stop-color:#818f95;stop-opacity:1" id="stop2623" offset=".5"/><stop id="stop2619" offset="1" style="stop-color:#31383b;stop-opacity:1"/></linearGradient><linearGradient id="linearGradient2591"><stop style="stop-color:#7a7a7a;stop-opacity:1" id="stop2593" offset="0"/><stop style="stop-color:#000;stop-opacity:1" id="stop2595" offset="1"/></linearGradient><linearGradient id="linearGradient6732"><stop id="stop6734" offset="0" style="stop-color:#fff;stop-opacity:1"/><stop id="stop6736" offset="1" style="stop-color:#ddd;stop-opacity:1"/></linearGradient><linearGradient id="linearGradient3220"><stop id="stop3222" offset="0" style="stop-color:#eee;stop-opacity:1"/><stop id="stop3224" offset="1" style="stop-color:#a2a2a2;stop-opacity:1"/></linearGradient><linearGradient id="linearGradient4414" x1="41.566" x2="13.731" y1="26.035" y2="25.72" gradientTransform="matrix(0.735227,0,0,0.5274103,-1.4088539,4.9272487)" gradientUnits="userSpaceOnUse" xlink:href="#linearGradient6732"/><radialGradient id="radialGradient4417" cx="605.714" cy="486.648" r="117.143" fx="605.714" fy="486.648" gradientTransform="matrix(-4.3323365e-2,0,0,1.537838e-2,31.502844,17.626813)" gradientUnits="userSpaceOnUse" xlink:href="#linearGradient5060"/><radialGradient id="radialGradient4420" cx="605.714" cy="486.648" r="117.143" fx="605.714" fy="486.648" gradientTransform="matrix(4.3323365e-2,0,0,1.537838e-2,0.2033038,17.626813)" gradientUnits="userSpaceOnUse" xlink:href="#linearGradient5060"/><linearGradient id="linearGradient4423" x1="302.857" x2="302.857" y1="366.648" y2="609.505" gradientTransform="matrix(4.3323365e-2,0,0,1.537838e-2,0.1947764,17.626813)" gradientUnits="userSpaceOnUse" xlink:href="#linearGradient5048"/><radialGradient id="radialGradient4425" cx="14.75" cy="22.688" r="1.75" fx="14.75" fy="22.688" gradientTransform="matrix(1,0,0,1.035714,0,-0.810268)" gradientUnits="userSpaceOnUse" xlink:href="#linearGradient2818"/><radialGradient id="radialGradient4427" cx="16.875" cy="23.672" r="4.625" fx="16.875" fy="23.672" gradientTransform="matrix(1,0,0,1.013514,0,-0.304899)" gradientUnits="userSpaceOnUse" xlink:href="#linearGradient2591"/><linearGradient id="linearGradient4429" x1="12.836" x2="18.422" y1="18.849" y2="27.073" gradientUnits="userSpaceOnUse" xlink:href="#linearGradient2631"/><linearGradient id="linearGradient4431" x1="23.661" x2="33.904" y1="35.303" y2="30.917" gradientUnits="userSpaceOnUse" xlink:href="#linearGradient2673"/><linearGradient id="linearGradient4433" x1="22.55" x2="38.416" y1="39.052" y2="30.566" gradientUnits="userSpaceOnUse" xlink:href="#linearGradient2615"/><radialGradient id="radialGradient4435" cx="25.375" cy="36.813" r="17.5" fx="25.375" fy="36.813" gradientTransform="matrix(1,0,0,0.453571,0,20.1154)" gradientUnits="userSpaceOnUse" xlink:href="#linearGradient2656"/><linearGradient id="linearGradient8691" x1="10.211" x2="17.537" y1="29.719" y2="29.719" gradientTransform="matrix(0.7391925,0,0,0.7316706,3.3257653e-3,-4.2766241)" gradientUnits="userSpaceOnUse" xlink:href="#linearGradient3220"/></defs><metadata id="metadata4"/><g id="layer1"><g id="g8693"><rect id="rect4173" width="20.919" height="3.735" x="5.394" y="23.265" style="opacity:.40206185;fill:url(#linearGradient4423);fill-opacity:1;fill-rule:nonzero;stroke:none;stroke-width:1;stroke-linecap:round;stroke-linejoin:miter;marker:none;marker-start:none;marker-mid:none;marker-end:none;stroke-miterlimit:4;stroke-dasharray:none;stroke-dashoffset:0;stroke-opacity:1;visibility:visible;display:inline;overflow:visible"/><path id="path5058" d="M 26.312579,23.265383 C 26.312579,23.265383 26.312579,26.999925 26.312579,26.999925 C 28.543624,27.006956 31.706165,26.163204 31.706159,25.132414 C 31.706159,24.101624 29.21648,23.265383 26.312579,23.265383 z" style="opacity:.40206185;fill:url(#radialGradient4420);fill-opacity:1;fill-rule:nonzero;stroke:none;stroke-width:1;stroke-linecap:round;stroke-linejoin:miter;marker:none;marker-start:none;marker-mid:none;marker-end:none;stroke-miterlimit:4;stroke-dasharray:none;stroke-dashoffset:0;stroke-opacity:1;visibility:visible;display:inline;overflow:visible"/><path style="opacity:.40206185;fill:url(#radialGradient4417);fill-opacity:1;fill-rule:nonzero;stroke:none;stroke-width:1;stroke-linecap:round;stroke-linejoin:miter;marker:none;marker-start:none;marker-mid:none;marker-end:none;stroke-miterlimit:4;stroke-dasharray:none;stroke-dashoffset:0;stroke-opacity:1;visibility:visible;display:inline;overflow:visible" id="path5018" d="M 5.3935835,23.265383 C 5.3935835,23.265383 5.3935835,26.999925 5.3935835,26.999925 C 3.162537,27.006956 0,26.163204 0,25.132414 C 0,24.101624 2.489679,23.265383 5.3935835,23.265383 z"/></g><path style="fill:url(#linearGradient4414);fill-opacity:1;fill-rule:evenodd;stroke:#939393;stroke-width:1;stroke-linecap:butt;stroke-linejoin:miter;marker:none;marker-start:none;marker-mid:none;marker-end:none;stroke-miterlimit:4;stroke-dasharray:none;stroke-dashoffset:0;stroke-opacity:1;visibility:visible;display:inline;overflow:visible" id="rect5857" d="M 2.2509969,9.9010212 C 5.0042742,8.3235902 10.057739,8.646948 14.236513,9.5006883 L 28.840334,9.6739428 C 29.851428,9.6739428 30.480831,10.277499 30.480831,11.081009 L 30.521209,24.397802 C 30.561586,24.665304 29.732286,25.451086 29.52874,25.440257 L 9.4096124,25.526884 C 7.0608779,26.029683 5.0424337,26.106203 3.3897625,25.710649 C 2.2807789,25.526884 1.5320532,24.849388 1.5320532,24.045878 L 1.5320532,11.124322 C 1.5320532,10.320812 1.6090675,10.377473 2.2509969,9.9010212 z"/><path id="path2276" d="M 11.87709,16.627833 L 14.467118,12.13681 L 20.381176,12.13681 L 22.933252,15.86006 L 20.434456,11.291078 L 14.20072,11.291078 L 11.87709,16.627833 z" style="fill:#a7aba7;fill-opacity:1;fill-rule:nonzero;stroke:none;stroke-width:1;stroke-linecap:butt;stroke-linejoin:miter;marker:none;marker-start:none;marker-mid:none;marker-end:none;stroke-miterlimit:4;stroke-dasharray:none;stroke-dashoffset:0;stroke-opacity:1;visibility:visible;display:block;overflow:visible"/><path style="fill:url(#linearGradient8691);fill-opacity:1;fill-rule:nonzero;stroke:none;stroke-width:1;stroke-linecap:butt;stroke-linejoin:miter;marker:none;marker-start:none;marker-mid:none;marker-end:none;stroke-miterlimit:4;stroke-dasharray:none;stroke-dashoffset:0;stroke-opacity:1;visibility:visible;display:block;overflow:visible" id="path7949" d="M 6.4943636,9.4193344 C 5.1423705,9.4446803 3.6985681,9.600392 2.5534045,10.376848 C 2.0469392,10.630689 1.9675217,11.267556 2.1054046,11.637211 C 2.07829,15.684938 2.0341971,19.733032 2.0180869,23.780536 C 2.1751613,24.599125 2.8489388,25.022336 3.5606763,25.218511 C 5.3246256,25.614211 7.4402372,25.43422 9.1922289,25.002722 C 9.8510143,24.797869 10.491233,24.57904 11.004944,23.993577 C 11.036978,19.916718 11.014028,15.692804 10.98276,11.615114 C 10.975672,10.961884 10.796832,10.463499 10.211,10.22603 C 9.0947092,9.5924205 7.7584354,9.4356252 6.4943636,9.4193344 z"/><path style="fill:#888a85;fill-opacity:1;fill-rule:nonzero;stroke:none;stroke-width:1;stroke-linecap:butt;stroke-linejoin:miter;marker:none;marker-start:none;marker-mid:none;marker-end:none;stroke-miterlimit:4;stroke-dashoffset:0;stroke-opacity:1;visibility:visible;display:block;overflow:visible" id="path7953" d="M 13.625851,9.8078957 C 10.443415,9.3739637 7.8012778,8.8845954 4.6240204,9.5689487 C 3.7293414,9.7806457 2.4047424,10.649751 3.0297092,11.691028 C 3.8495799,13.192979 5.7825805,13.559973 7.3510954,13.267034 C 8.4388392,13.070414 9.7272463,12.704707 10.242392,11.635299 C 10.07259,10.977964 10.621895,10.424358 11.423152,10.523481 C 13.008927,10.179452 14.158444,9.8297607 15.74438,9.4864587 C 15.251745,9.5727707 14.118485,9.7215827 13.625851,9.8078957 z"/><path style="fill:none;fill-opacity:1;fill-rule:evenodd;stroke:#fff;stroke-width:.99999988;stroke-linecap:butt;stroke-linejoin:miter;marker:none;marker-start:none;marker-mid:none;marker-end:none;stroke-miterlimit:4;stroke-dasharray:none;stroke-dashoffset:0;stroke-opacity:1;visibility:visible;display:inline;overflow:visible" id="rect6740" d="M 14.099205,10.493855 L 28.358956,10.777511 C 28.980935,10.777511 29.481663,11.165216 29.481663,11.646805 L 29.512913,23.610304 C 29.512913,24.091894 29.074685,24.432723 28.452706,24.432723 L 9.9213804,24.495223 C 8.0596827,24.950722 2.6828954,25.397595 2.5273834,23.950115 L 2.497507,10.81868 C 6.0858857,9.0726345 11.40625,9.857343 14.099205,10.493855 z"/><path transform="matrix(0.2501749,0,0,0.3827737,3.7677265,-3.2373083)" style="fill:#2f302e;fill-opacity:1;fill-rule:nonzero;stroke:none;stroke-width:1;stroke-linecap:butt;stroke-linejoin:miter;marker:none;marker-start:none;marker-mid:none;marker-end:none;stroke-miterlimit:4;stroke-dasharray:none;stroke-dashoffset:0;stroke-opacity:1;visibility:visible;display:block;overflow:visible" id="path2288" d="M 14.857143,38.214287 A 6.0714288,2.5 0 1 1 2.7142854,38.214287 A 6.0714288,2.5 0 1 1 14.857143,38.214287 z"/><path style="opacity:.43037971;fill:#eeeeec;fill-opacity:1;fill-rule:nonzero;stroke:none;stroke-width:1;stroke-linecap:butt;stroke-linejoin:miter;marker:none;marker-start:none;marker-mid:none;marker-end:none;stroke-miterlimit:4;stroke-dashoffset:0;stroke-opacity:1;visibility:visible;display:inline;overflow:visible;font-family:Bitstream Vera Sans" id="path2612" d="M 16.5,22.6875 A 1.75,1.8125 0 1 1 13,22.6875 A 1.75,1.8125 0 1 1 16.5,22.6875 z" transform="matrix(0.271327,0,0,0.26918,1.5084446,5.2651614)"/><path style="opacity:.39873418;fill:url(#radialGradient4435);fill-opacity:1;fill-rule:nonzero;stroke:none;stroke-width:1;stroke-linecap:butt;stroke-linejoin:miter;marker:none;marker-start:none;marker-mid:none;marker-end:none;stroke-miterlimit:4;stroke-dasharray:none;stroke-dashoffset:0;stroke-opacity:1;visibility:visible;display:block;overflow:visible" id="path2664" d="M 42.875,36.8125 A 17.5,7.9375 0 1 1 7.875,36.8125 A 17.5,7.9375 0 1 1 42.875,36.8125 z" transform="matrix(0.3488732,0,0,0.4049443,9.5155791,6.8398854)"/><path id="path2280" d="M 40.714286,33.57143 A 10.142858,10.142858 0 1 1 20.428571,33.57143 A 10.142858,10.142858 0 1 1 40.714286,33.57143 z" transform="matrix(0.5450183,0,0,0.5407056,0.8436407,-0.3212896)" style="fill:url(#linearGradient4433);fill-opacity:1;fill-rule:nonzero;stroke:none;stroke-width:1;stroke-linecap:butt;stroke-linejoin:miter;marker:none;marker-start:none;marker-mid:none;marker-end:none;stroke-miterlimit:4;stroke-dasharray:none;stroke-dashoffset:0;stroke-opacity:1;visibility:visible;display:block;overflow:visible"/><path style="fill:url(#linearGradient4431);fill-opacity:1;fill-rule:nonzero;stroke:none;stroke-width:1;stroke-linecap:butt;stroke-linejoin:miter;marker:none;marker-start:none;marker-mid:none;marker-end:none;stroke-miterlimit:4;stroke-dasharray:none;stroke-dashoffset:0;stroke-opacity:1;visibility:visible;display:block;overflow:visible" id="path2278" d="M 40.714286,33.57143 A 10.142858,10.142858 0 1 1 20.428571,33.57143 A 10.142858,10.142858 0 1 1 40.714286,33.57143 z" transform="matrix(0.5450183,0,0,0.5407056,0.9269179,0.6222674)"/><path style="fill:#f7f7f7;fill-opacity:1;fill-rule:nonzero;stroke:none;stroke-width:1;stroke-linecap:butt;stroke-linejoin:miter;marker:none;marker-start:none;marker-mid:none;marker-end:none;stroke-miterlimit:4;stroke-dasharray:none;stroke-dashoffset:0;stroke-opacity:1;visibility:visible;display:block;overflow:visible" id="path2312" d="M 2.8139004,11.385718 C 2.7500467,12.407247 3.561769,13.267334 4.4521731,13.656742 C 5.5890773,14.154563 6.9113732,14.184497 8.0960693,13.839496 C 9.2900271,13.488935 10.387408,12.508382 10.527674,11.232678 C 11.533379,10.837423 12.539084,10.442169 13.544789,10.046914 C 12.40499,10.279417 11.265191,10.51192 10.125393,10.744422 C 10.191035,11.716716 9.4912583,12.593122 8.6188037,12.96331 C 7.5218734,13.448221 6.2682035,13.419818 5.1098583,13.201511 C 4.2586914,13.040695 3.4430683,12.558753 3.0275287,11.785303 C 2.9510042,11.654979 2.8819913,11.520511 2.8139004,11.385718 z"/><path id="path8415" d="M 40.714286,33.57143 A 10.142858,10.142858 0 1 1 20.428571,33.57143 A 10.142858,10.142858 0 1 1 40.714286,33.57143 z" transform="matrix(0.5450183,0,0,0.5407056,0.9793338,1.0851609)" style="fill:#2e3436;fill-opacity:1;fill-rule:nonzero;stroke:none;stroke-width:1;stroke-linecap:butt;stroke-linejoin:miter;marker:none;marker-start:none;marker-mid:none;marker-end:none;stroke-miterlimit:4;stroke-dasharray:none;stroke-dashoffset:0;stroke-opacity:1;visibility:visible;display:block;overflow:visible"/><path style="fill:url(#radialGradient4427);fill-opacity:1;fill-rule:nonzero;stroke:url(#linearGradient4429);stroke-width:.97110128;stroke-linecap:butt;stroke-linejoin:miter;marker:none;marker-start:none;marker-mid:none;marker-end:none;stroke-miterlimit:4;stroke-dashoffset:0;stroke-opacity:1;visibility:visible;display:inline;overflow:visible;font-family:Bitstream Vera Sans" id="path2589" d="M 19.875,22.5625 A 4.125,4.1875 0 1 1 11.625,22.5625 A 4.125,4.1875 0 1 1 19.875,22.5625 z" transform="matrix(0.8440001,0,0,0.8373216,4.2704653,0.3453571)"/><path style="opacity:.60759499;fill:#fff;fill-opacity:.52866247;fill-rule:nonzero;stroke:none;stroke-width:1;stroke-linecap:butt;stroke-linejoin:miter;marker:none;marker-start:none;marker-mid:none;marker-end:none;stroke-miterlimit:4;stroke-dashoffset:0;stroke-opacity:1;visibility:visible;display:inline;overflow:visible;font-family:Bitstream Vera Sans" id="path2599" d="M 16.5,22.6875 A 1.75,1.8125 0 1 1 13,22.6875 A 1.75,1.8125 0 1 1 16.5,22.6875 z" transform="matrix(0.8440001,0,0,0.8373216,5.282833,0.2731346)"/><path id="path2601" d="M 16.5,22.6875 A 1.75,1.8125 0 1 1 13,22.6875 A 1.75,1.8125 0 1 1 16.5,22.6875 z" transform="matrix(0.842118,0,0,0.8354544,4.1927212,-0.6282921)" style="opacity:.37341769;fill:#fff;fill-opacity:1;fill-rule:nonzero;stroke:none;stroke-width:1;stroke-linecap:butt;stroke-linejoin:miter;marker:none;marker-start:none;marker-mid:none;marker-end:none;stroke-miterlimit:4;stroke-dashoffset:0;stroke-opacity:1;visibility:visible;display:inline;overflow:visible;font-family:Bitstream Vera Sans"/><path style="fill:url(#radialGradient4425);fill-opacity:1;fill-rule:nonzero;stroke:none;stroke-width:1;stroke-linecap:butt;stroke-linejoin:miter;marker:none;marker-start:none;marker-mid:none;marker-end:none;stroke-miterlimit:4;stroke-dashoffset:0;stroke-opacity:1;visibility:visible;display:inline;overflow:visible;font-family:Bitstream Vera Sans" id="path8405" d="M 16.5,22.6875 A 1.75,1.8125 0 1 1 13,22.6875 A 1.75,1.8125 0 1 1 16.5,22.6875 z" transform="matrix(0.207721,0,0,0.2060774,16.330634,16.339243)"/><path id="path2629" d="M 16.5,22.6875 A 1.75,1.8125 0 1 1 13,22.6875 A 1.75,1.8125 0 1 1 16.5,22.6875 z" transform="matrix(0.2295531,0,0,0.2277367,12.732824,12.550191)" style="fill:#fff;fill-opacity:1;fill-rule:nonzero;stroke:none;stroke-width:1;stroke-linecap:butt;stroke-linejoin:miter;marker:none;marker-start:none;marker-mid:none;marker-end:none;stroke-miterlimit:4;stroke-dashoffset:0;stroke-opacity:1;visibility:visible;display:inline;overflow:visible;font-family:Bitstream Vera Sans"/><path style="fill:#c5c5c5;fill-opacity:.52866247;fill-rule:nonzero;stroke:none;stroke-width:2;stroke-linecap:butt;stroke-linejoin:miter;marker:none;marker-start:none;marker-mid:none;marker-end:none;stroke-miterlimit:4;stroke-dasharray:none;stroke-dashoffset:0;stroke-opacity:1;visibility:visible;display:block;overflow:visible" id="path2641" d="M 42.25,20.5625 A 1.625,0.6875 0 1 1 39,20.5625 A 1.625,0.6875 0 1 1 42.25,20.5625 z" transform="matrix(0.722775,0,0,1.1299059,-3.6752777,-10.833957)"/><path id="path2639" d="M 42.25,20.5625 A 1.625,0.6875 0 1 1 39,20.5625 A 1.625,0.6875 0 1 1 42.25,20.5625 z" transform="matrix(0.722775,0,0,1.1299059,-3.6317776,-10.575022)" style="fill:#565656;fill-opacity:1;fill-rule:nonzero;stroke:none;stroke-width:2;stroke-linecap:butt;stroke-linejoin:miter;marker:none;marker-start:none;marker-mid:none;marker-end:none;stroke-miterlimit:4;stroke-dasharray:none;stroke-dashoffset:0;stroke-opacity:1;visibility:visible;display:block;overflow:visible"/><path id="path2650" d="M 14.226905,16.059734 C 15.536823,14.378263 18.633491,13.966303 20.404678,15.539841" style="fill:none;fill-opacity:1;fill-rule:nonzero;stroke:#777;stroke-width:.81636029;stroke-linecap:butt;stroke-linejoin:miter;marker:none;marker-start:none;marker-mid:none;marker-end:none;stroke-miterlimit:4;stroke-dasharray:none;stroke-dashoffset:0;stroke-opacity:1;visibility:visible;display:block;overflow:visible"/><path id="path2668" d="M 17.72404,17.755301 C 16.908736,17.755301 16.259303,18.438296 16.259303,19.276036 C 16.259303,19.46769 16.383472,19.597168 16.446654,19.76605 C 16.510409,19.774716 16.550923,19.833638 16.616972,19.833638 C 17.430457,19.833638 18.081707,19.165672 18.081707,18.3298 C 18.081707,18.13327 17.943732,17.995237 17.877326,17.822889 C 17.819469,17.815802 17.783744,17.755301 17.72404,17.755301 z" style="opacity:.67088611;fill:#fff;fill-opacity:1;fill-rule:nonzero;stroke:none;stroke-width:1;stroke-linecap:butt;stroke-linejoin:miter;marker:none;marker-start:none;marker-mid:none;marker-end:none;stroke-miterlimit:4;stroke-dashoffset:0;stroke-opacity:1;visibility:visible;display:inline;overflow:visible;font-family:Bitstream Vera Sans"/></g></svg>