<svg xmlns="http://www.w3.org/2000/svg" xmlns:svg="http://www.w3.org/2000/svg" xmlns:xlink="http://www.w3.org/1999/xlink" id="svg11300" width="32" height="32" version="1.0"><defs id="defs3"><linearGradient id="linearGradient3153"><stop style="stop-color:#f9f9f8;stop-opacity:1" id="stop3155" offset="0"/><stop style="stop-color:#cdcfca;stop-opacity:1" id="stop3157" offset="1"/></linearGradient><linearGradient id="linearGradient6482"><stop style="stop-color:#000;stop-opacity:1" id="stop6484" offset="0"/><stop style="stop-color:#000;stop-opacity:0" id="stop6486" offset="1"/></linearGradient><radialGradient id="radialGradient6488" cx="13.03" cy="-7.007" r="18.143" fx="13.03" fy="-7.007" gradientTransform="matrix(1,0,0,0.3954545,0,-4.2360423)" gradientUnits="userSpaceOnUse" xlink:href="#linearGradient6482"/><linearGradient id="linearGradient2338"><stop id="stop2340" offset="0" style="stop-color:#3465a4;stop-opacity:1"/><stop id="stop2342" offset="1" style="stop-color:#3465a4;stop-opacity:0"/></linearGradient><linearGradient id="linearGradient12425" x1="23.188" x2="23.188" y1="33.688" y2="19.278" gradientTransform="matrix(0.7560949,0,0,-0.716689,-1.5164343,35.176163)" gradientUnits="userSpaceOnUse" xlink:href="#linearGradient2338"/><radialGradient id="radialGradient3159" cx="8.042" cy="13.534" r="19.677" fx="8.042" fy="13.534" gradientTransform="matrix(0.201213,1.336544,-1.3380517,0.1808925,21.056267,-4.4583022)" gradientUnits="userSpaceOnUse" xlink:href="#linearGradient3153"/></defs><metadata id="metadata4"/><g id="layer1"><path style="opacity:.3;fill:url(#radialGradient6488);fill-opacity:1;fill-rule:evenodd;stroke:none;stroke-width:1;stroke-linecap:round;stroke-linejoin:round;stroke-miterlimit:4;stroke-dasharray:none;stroke-dashoffset:0;stroke-opacity:1" id="path5511" d="M 31.173375,-7.0069871 A 18.143234,7.1748242 0 1 1 -5.1130934,-7.0069871 A 18.143234,7.1748242 0 1 1 31.173375,-7.0069871 z" transform="matrix(0.7801525,0,0,0.9383944,5.7776314,31.642503)"/><path style="fill:url(#radialGradient3159);fill-opacity:1;fill-rule:evenodd;stroke:#888a85;stroke-width:1;stroke-linecap:butt;stroke-linejoin:miter;stroke-miterlimit:4;stroke-dasharray:none;stroke-dashoffset:0;stroke-opacity:1" id="rect2370" d="M 16.054441,1.4754078 L 1.4999999,7.3658198 L 1.4999999,24.222935 L 16.020751,29.618488 L 30.507811,24.222935 L 30.490965,7.3658198 L 16.054441,1.4754078 z"/><path style="fill:url(#linearGradient12425);fill-opacity:1;fill-rule:evenodd;stroke:none;stroke-width:1px;stroke-linecap:butt;stroke-linejoin:miter;stroke-opacity:1" id="path11448" d="M 3.992694,10.985825 L 4.008319,14.021323 L 14.018569,18.085 L 14.033814,15.013563 L 3.992694,10.985825 z M 28.007086,10.950411 L 17.986163,14.991166 L 18.017793,18.017811 L 28.022711,14.02862 L 28.007086,10.950411 z"/><path id="path18255" d="M 16.503138,13.107512 L 16.4972,28.768172" style="fill:none;fill-rule:evenodd;stroke:#fff;stroke-width:1;stroke-linecap:butt;stroke-linejoin:miter;stroke-miterlimit:4;stroke-dasharray:none;stroke-opacity:.7524116"/><path style="fill:none;fill-opacity:1;fill-rule:evenodd;stroke:#fff;stroke-width:1.9540073899999999;stroke-linecap:butt;stroke-linejoin:miter;stroke-miterlimit:4;stroke-dasharray:none;stroke-dashoffset:0;stroke-opacity:.7524116" id="path8463" d="M 128.53125,-61.5625 L 102.8125,-50.59375 L 102.8125,-19.34375 L 128.46875,-9.28125 L 154.0625,-19.34375 L 154.03125,-50.59375 L 128.53125,-61.5625 z" transform="matrix(0.5269764,0,0,0.497,-51.679334,33.151619)"/><path style="fill:none;fill-rule:evenodd;stroke:#888a85;stroke-width:1;stroke-linecap:butt;stroke-linejoin:miter;stroke-miterlimit:4;stroke-dasharray:none;stroke-opacity:1" id="path9436" d="M 15.497906,13.031195 L 15.514881,29.470485"/><path id="path17284" d="M 3.942633,7.3255407 L 16.043467,12.01657 L 27.919022,7.4307054" style="fill:none;fill-rule:evenodd;stroke:#fff;stroke-width:1;stroke-linecap:butt;stroke-linejoin:miter;stroke-miterlimit:4;stroke-dasharray:none;stroke-opacity:.7524116"/><path style="fill:none;fill-rule:evenodd;stroke:#888a85;stroke-width:1;stroke-linecap:butt;stroke-linejoin:miter;stroke-miterlimit:4;stroke-dasharray:none;stroke-opacity:1" id="path8465" d="M 1.796516,7.5422978 L 16.033681,13.112563 L 30.376085,7.5507018"/></g></svg>