<svg xmlns="http://www.w3.org/2000/svg" xmlns:svg="http://www.w3.org/2000/svg" xmlns:xlink="http://www.w3.org/1999/xlink" id="svg11300" width="32" height="32" version="1.0"><defs id="defs3"><linearGradient id="linearGradient3340"><stop id="stop3342" offset="0" style="stop-color:#fff;stop-opacity:1"/><stop id="stop3344" offset="1" style="stop-color:#fff;stop-opacity:0"/></linearGradient><linearGradient id="linearGradient2257"><stop id="stop2259" offset="0" style="stop-color:#ef2929"/><stop id="stop2261" offset="1" style="stop-color:#c00"/></linearGradient><radialGradient id="radialGradient2882" cx="22.5" cy="28.116" r="14.538" fx="22.5" fy="28.116" gradientTransform="matrix(2.365562,0,0,2.202845,-30.72517,-34.23996)" gradientUnits="userSpaceOnUse" xlink:href="#linearGradient2257"/><radialGradient id="radialGradient2886" cx="22.5" cy="28.116" r="14.538" fx="22.5" fy="28.116" gradientTransform="matrix(2.365562,0,0,2.202845,-30.72517,-34.23996)" gradientUnits="userSpaceOnUse" xlink:href="#linearGradient2257"/><radialGradient id="radialGradient2888" cx="21.929" cy="-3.218" r="13" fx="21.929" fy="-3.218" gradientTransform="matrix(3.658819,0,0,2.080782,-60.29089,13.57443)" gradientUnits="userSpaceOnUse" xlink:href="#linearGradient3340"/><radialGradient id="radialGradient2890" cx="22.5" cy="28.116" r="14.538" fx="22.5" fy="28.116" gradientTransform="matrix(2.365562,0,0,2.202845,-30.72517,-34.23996)" gradientUnits="userSpaceOnUse" xlink:href="#linearGradient2257"/><radialGradient id="radialGradient2892" cx="21.929" cy="-3.218" r="13" fx="21.929" fy="-3.218" gradientTransform="matrix(3.658819,0,0,2.080782,-60.29089,13.57443)" gradientUnits="userSpaceOnUse" xlink:href="#linearGradient3340"/><radialGradient id="radialGradient2894" cx="22.5" cy="28.116" r="14.538" fx="22.5" fy="28.116" gradientTransform="matrix(2.365562,0,0,2.202845,-30.72517,-34.23996)" gradientUnits="userSpaceOnUse" xlink:href="#linearGradient2257"/><radialGradient id="radialGradient2896" cx="21.929" cy="-3.218" r="13" fx="21.929" fy="-3.218" gradientTransform="matrix(3.658819,0,0,2.080782,-60.29089,13.57443)" gradientUnits="userSpaceOnUse" xlink:href="#linearGradient3340"/><radialGradient id="radialGradient7928" cx="21.929" cy="-3.218" r="13" fx="21.929" fy="-3.218" gradientTransform="matrix(2.9104526,0,0,1.6517537,-22.118316,12.439126)" gradientUnits="userSpaceOnUse" xlink:href="#linearGradient3340"/></defs><metadata id="metadata4"/><g id="layer1"><g id="g3150" transform="matrix(1.0874971,0,0,1.0852435,-12.401061,-10.910489)" style="opacity:.18999999"><path id="path3152" d="M 36.5,22 A 14,13 0 1 1 8.5,22 A 14,13 0 1 1 36.5,22 z" transform="matrix(0.894862,0,0,0.9657,5.981291,3.472737)" style="fill:url(#radialGradient2894);fill-opacity:1;fill-rule:evenodd;stroke:#c00;stroke-width:.79857796;stroke-linecap:square;stroke-linejoin:round;stroke-miterlimit:4;stroke-opacity:1;stroke-dasharray:none;stroke-dashoffset:0;marker:none;marker-start:none;marker-mid:none;marker-end:none;visibility:visible;display:inline;overflow:visible"/><path id="path3154" d="M 38,24 A 14,14 0 1 1 10,24 A 14,14 0 1 1 38,24 z" transform="matrix(0.821429,0,0,0.821429,6.410632,5.003844)" style="fill:none;stroke:#f77d7d;stroke-width:.90374619;stroke-linecap:square;stroke-linejoin:round;stroke-miterlimit:4;stroke-opacity:1;stroke-dasharray:none;stroke-dashoffset:0;marker:none;marker-start:none;marker-mid:none;marker-end:none;visibility:visible;display:inline;overflow:visible"/><path id="path3156" d="M 25.968665,12.718129 C 19.689133,12.797724 14.564242,17.710188 14.156165,23.905629 C 20.273988,26.422409 28.026585,22.454406 37.29817,20.523743 C 36.60976,17.775174 32.74345,12.718129 26.124915,12.718129 C 26.073208,12.718129 26.020218,12.717476 25.968665,12.718129 z" style="opacity:.6;fill:url(#radialGradient2896);fill-opacity:1;fill-rule:evenodd;stroke:none;display:inline"/></g><g id="g3122" transform="matrix(0.8815992,0,0,0.8797724,-6.9701086,-5.8575759)" style="opacity:.51000001"><path id="path3124" d="M 36.5,22 A 14,13 0 1 1 8.5,22 A 14,13 0 1 1 36.5,22 z" transform="matrix(0.894862,0,0,0.9657,5.981291,3.472737)" style="fill:url(#radialGradient2890);fill-opacity:1;fill-rule:evenodd;stroke:#c00;stroke-width:.98508626;stroke-linecap:square;stroke-linejoin:round;stroke-miterlimit:4;stroke-opacity:1;stroke-dasharray:none;stroke-dashoffset:0;marker:none;marker-start:none;marker-mid:none;marker-end:none;visibility:visible;display:inline;overflow:visible"/><path id="path3126" d="M 38,24 A 14,14 0 1 1 10,24 A 14,14 0 1 1 38,24 z" transform="matrix(0.821429,0,0,0.821429,6.410632,5.003844)" style="fill:none;stroke:#f77d7d;stroke-width:1.11481678;stroke-linecap:square;stroke-linejoin:round;stroke-miterlimit:4;stroke-opacity:1;stroke-dasharray:none;stroke-dashoffset:0;marker:none;marker-start:none;marker-mid:none;marker-end:none;visibility:visible;display:inline;overflow:visible"/><path id="path3128" d="M 25.968665,12.718129 C 19.689133,12.797724 14.564242,17.710188 14.156165,23.905629 C 20.273988,26.422409 28.026585,22.454406 37.29817,20.523743 C 36.60976,17.775174 32.74345,12.718129 26.124915,12.718129 C 26.073208,12.718129 26.020218,12.717476 25.968665,12.718129 z" style="opacity:.6;fill:url(#radialGradient2892);fill-opacity:1;fill-rule:evenodd;stroke:none;display:inline"/></g><g id="g3117" transform="matrix(0.6948619,0,0,0.6934219,-2.03806,-1.2877222)"><path id="path2525" d="M 36.5,22 A 14,13 0 1 1 8.5,22 A 14,13 0 1 1 36.5,22 z" transform="matrix(0.894862,0,0,0.9657,5.981291,3.472737)" style="fill:url(#radialGradient2886);fill-opacity:1;fill-rule:evenodd;stroke:#c00;stroke-width:1.24981844;stroke-linecap:square;stroke-linejoin:round;stroke-miterlimit:4;stroke-opacity:1;stroke-dasharray:none;stroke-dashoffset:0;marker:none;marker-start:none;marker-mid:none;marker-end:none;visibility:visible;display:inline;overflow:visible"/><path id="path2527" d="M 38,24 A 14,14 0 1 1 10,24 A 14,14 0 1 1 38,24 z" transform="matrix(0.821429,0,0,0.821429,6.410632,5.003844)" style="fill:none;stroke:#f77d7d;stroke-width:1.41441286;stroke-linecap:square;stroke-linejoin:round;stroke-miterlimit:4;stroke-opacity:1;stroke-dasharray:none;stroke-dashoffset:0;marker:none;marker-start:none;marker-mid:none;marker-end:none;visibility:visible;display:inline;overflow:visible"/><path id="path2529" d="M 25.968665,12.718129 C 19.689133,12.797724 14.564242,17.710188 14.156165,23.905629 C 20.273988,26.422409 28.026585,22.454406 37.29817,20.523743 C 36.60976,17.775174 32.74345,12.718129 26.124915,12.718129 C 26.073208,12.718129 26.020218,12.717476 25.968665,12.718129 z" style="opacity:.6;fill:url(#radialGradient2888);fill-opacity:1;fill-rule:evenodd;stroke:none;display:inline"/></g><g style="opacity:.18999999" id="g2210" transform="matrix(1.5650552,0,0,1.5650552,-56.954827,-17.312443)"><path style="opacity:.55097088;fill:url(#radialGradient2882);fill-opacity:1;fill-rule:evenodd;stroke:#c00;stroke-width:.69758344;stroke-linecap:square;stroke-linejoin:round;stroke-miterlimit:4;stroke-opacity:1;stroke-dasharray:none;stroke-dashoffset:0;marker:none;marker-start:none;marker-mid:none;marker-end:none;visibility:visible;display:inline;overflow:visible" id="path2212" d="M 36.5,22 A 14,13 0 1 1 8.5,22 A 14,13 0 1 1 36.5,22 z" transform="matrix(0.711829,0,0,0.7665861,30.598705,4.4202612)"/><path style="opacity:.6;fill:url(#radialGradient7928);fill-opacity:1;fill-rule:evenodd;stroke:none;display:inline" id="path2216" d="M 46.497908,11.759382 C 41.502777,11.822565 37.426119,15.722148 37.10151,20.640175 C 41.968007,22.63803 48.134906,19.488174 55.510102,17.955587 C 54.962498,15.773734 51.886994,11.759382 46.622199,11.759382 C 46.581068,11.759382 46.538916,11.758864 46.497908,11.759382 z"/><path style="fill:none;stroke:#f77d7d;stroke-width:.7894513;stroke-linecap:square;stroke-linejoin:round;stroke-miterlimit:4;stroke-opacity:1;stroke-dasharray:none;stroke-dashoffset:0;marker:none;marker-start:none;marker-mid:none;marker-end:none;visibility:visible;display:inline;overflow:visible" id="path2214" d="M 38,24 A 14,14 0 1 1 10,24 A 14,14 0 1 1 38,24 z" transform="matrix(0.6534158,0,0,0.6520618,30.94023,5.6356752)"/></g></g></svg>