<svg xmlns="http://www.w3.org/2000/svg" xmlns:svg="http://www.w3.org/2000/svg" xmlns:xlink="http://www.w3.org/1999/xlink" id="svg11300" width="32" height="32" version="1.0"><defs id="defs3"><linearGradient id="linearGradient8688"><stop style="stop-color:#000;stop-opacity:1" id="stop8690" offset="0"/><stop style="stop-color:#000;stop-opacity:0" id="stop8692" offset="1"/></linearGradient><linearGradient id="linearGradient2984"><stop style="stop-color:#e7e2b8;stop-opacity:1" id="stop2986" offset="0"/><stop style="stop-color:#e7e2b8;stop-opacity:0" id="stop2988" offset="1"/></linearGradient><radialGradient id="radialGradient8694" cx="25.375" cy="40.75" r="11.5" fx="25.375" fy="40.75" gradientTransform="matrix(1,0,0,0.1413043,0,34.991848)" gradientUnits="userSpaceOnUse" xlink:href="#linearGradient8688"/><radialGradient id="radialGradient8702" cx="29.053" cy="27.641" r="3.241" fx="29.053" fy="27.641" gradientTransform="matrix(0.8181916,2.5793414,-1.7922919,0.5675453,40.566208,-79.712372)" gradientUnits="userSpaceOnUse" xlink:href="#linearGradient2984"/></defs><metadata id="metadata4"/><g id="layer1"><path style="opacity:.2;fill:url(#radialGradient8694);fill-opacity:1;stroke:none;stroke-width:1.20000005;stroke-linecap:round;stroke-linejoin:miter;stroke-miterlimit:4;stroke-dasharray:none;stroke-dashoffset:0;stroke-opacity:1" id="path7916" d="M 36.875,40.75 A 11.5,1.625 0 1 1 13.875,40.75 A 11.5,1.625 0 1 1 36.875,40.75 z" transform="matrix(0.8381074,0,0,1.5343373,1.0688961,-33.017543)"/><path id="path2960" d="M 9.5229034,6.983831 L 16.064138,10.373688 L 30.297092,25.375303 C 32.310422,27.893122 28.76866,30.895735 26.529142,28.813617 L 12.644815,13.762285 L 9.5229034,6.983831 z" style="fill:#cb9022;fill-opacity:1;fill-rule:evenodd;stroke:#5c410c;stroke-width:1;stroke-linecap:butt;stroke-linejoin:miter;marker:none;marker-start:none;marker-mid:none;marker-end:none;stroke-miterlimit:4;stroke-dasharray:none;stroke-dashoffset:0;stroke-opacity:1;visibility:visible;display:inline;overflow:visible"/><path id="path3002" d="M 15.769148,10.787693 C 15.556759,11.758811 15.135897,12.510868 14.636841,12.944576 L 29.430073,28.631605 C 30.315494,28.004134 30.722008,26.74575 29.801931,25.5753 L 15.769148,10.787693 z" style="fill:#fff;fill-opacity:.36363639;fill-rule:evenodd;stroke:none;stroke-width:1;stroke-linecap:butt;stroke-linejoin:miter;marker:none;marker-start:none;marker-mid:none;marker-end:none;stroke-miterlimit:4;stroke-dasharray:none;stroke-dashoffset:0;stroke-opacity:1;visibility:visible;display:inline;overflow:visible"/><path id="path3004" d="M 13.114106,13.537692 C 13.446275,13.516818 13.749195,13.428498 14.036398,13.326754 L 28.370735,29.020277 C 28.370735,29.020277 27.550676,29.108385 26.838027,28.422612 L 13.114106,13.537692 z" style="fill:#000;fill-opacity:.36363639;fill-rule:evenodd;stroke:none;stroke-width:1;stroke-linecap:butt;stroke-linejoin:miter;marker:none;marker-start:none;marker-mid:none;marker-end:none;stroke-miterlimit:4;stroke-dasharray:none;stroke-dashoffset:0;stroke-opacity:1;visibility:visible;display:inline;overflow:visible"/><path transform="matrix(0.6872463,0,0,0.6857781,-0.163236,7.1143513e-2)" style="fill:none;fill-opacity:1;fill-rule:evenodd;stroke:#fff;stroke-width:1.45663917;stroke-linecap:butt;stroke-linejoin:miter;stroke-miterlimit:4;stroke-dashoffset:0;stroke-opacity:.43086817;marker:none;marker-start:none;marker-mid:none;marker-end:none;visibility:visible;display:inline;overflow:visible" id="path8707" d="M 17.153627,13.37103 L 19.852357,19.115907 L 39.545425,40.652382 C 40.751231,41.77584 42.000631,41.631111 42.954483,40.789088 C 43.431409,40.368077 43.625906,39.956942 43.704436,39.386078 C 43.782966,38.815214 43.625333,38.383931 43.065215,37.681961 L 22.77835,16.227843 L 17.153627,13.37103 z"/><path id="path3205" d="M 8.7175662,6.025827 C 10.028407,10.231417 1.3142356,16.894857 8.0767255,18.676636 C 14.355894,19.868928 10.208856,28.135668 5.0940143,25.977253 C 1.9463692,25.177427 -0.47054397,21.583457 1.0998478,18.460445" style="fill:none;fill-rule:evenodd;stroke:#ef2929;stroke-width:1.13418496px;stroke-linecap:butt;stroke-linejoin:miter;stroke-opacity:1"/><path id="path2992" d="M 12.476914,7.9603808 L 8.4618145,5.8828166 L 10.294623,9.9168139 C 10.990517,9.9088322 12.432427,8.4902479 12.476914,7.9603808 z" style="fill:#a40000;fill-opacity:1;fill-rule:evenodd;stroke:none;stroke-width:1;stroke-linecap:butt;stroke-linejoin:miter;marker:none;marker-start:none;marker-mid:none;marker-end:none;stroke-miterlimit:4;stroke-dasharray:none;stroke-dashoffset:0;stroke-opacity:1;visibility:visible;display:inline;overflow:visible"/><path id="path2982" d="M 10.572379,8.1007897 L 15.770908,10.776356 C 15.389718,12.43301 14.569294,13.45164 13.075873,13.530126 L 10.572379,8.1007897 z" style="fill:url(#radialGradient8702);fill-opacity:1;fill-rule:evenodd;stroke:none;stroke-width:1;stroke-linecap:butt;stroke-linejoin:miter;marker:none;marker-start:none;marker-mid:none;marker-end:none;stroke-miterlimit:4;stroke-dasharray:none;stroke-dashoffset:0;stroke-opacity:1;visibility:visible;display:inline;overflow:visible"/></g></svg>