<svg xmlns="http://www.w3.org/2000/svg" xmlns:svg="http://www.w3.org/2000/svg" xmlns:xlink="http://www.w3.org/1999/xlink" id="svg20565" width="32" height="32" version="1.0"><defs id="defs20567"><linearGradient id="linearGradient27019"><stop style="stop-color:#ef2929;stop-opacity:1" id="stop27021" offset="0"/><stop style="stop-color:#a40000;stop-opacity:1" id="stop27023" offset="1"/></linearGradient><linearGradient id="linearGradient27027" x1="-8.727" x2="28.182" y1="60.727" y2="27.636" gradientTransform="matrix(0.4937652,0,0,0.4936499,6.2680762,-0.9757392)" gradientUnits="userSpaceOnUse" xlink:href="#linearGradient27019"/></defs><metadata id="metadata20570"/><g id="layer1"><path style="fill:url(#linearGradient27027);fill-opacity:1;stroke:#a40000;stroke-width:1.00000012;stroke-linecap:round;stroke-linejoin:round;stroke-miterlimit:4;stroke-dasharray:none;stroke-dashoffset:.2;stroke-opacity:1" id="rect22540" d="M 0.5,12.453356 L 0.5,31.5 L 21.32039,31.5 C 22.865261,29.270512 23.762517,26.595445 23.762518,23.714419 C 23.762518,15.963149 17.245468,9.6630041 9.2094271,9.6630041 C 5.9447854,9.6630041 2.9291213,10.700744 0.5,12.453356 z"/><path style="opacity:.57291667;fill:#eeeeec;fill-opacity:0;stroke:#eeeeec;stroke-width:1.00000012;stroke-linecap:round;stroke-linejoin:round;stroke-miterlimit:4;stroke-dasharray:none;stroke-dashoffset:.2;stroke-opacity:1" id="path22557" d="M 1.5066417,12.933927 L 1.4753917,30.528834 L 20.710006,30.528834 C 22.195182,28.298376 22.625587,27.041463 22.717991,24.160662 C 22.967052,16.395917 16.022788,10.32013 8.8096229,10.665617 C 5.6985946,10.814625 3.8731488,11.30555 1.5066417,12.933927 z"/><path style="fill:none;fill-rule:evenodd;stroke:#204a87;stroke-width:2;stroke-linecap:butt;stroke-linejoin:miter;stroke-opacity:1;stroke-miterlimit:4;stroke-dasharray:none" id="path8643" d="M 8.3085047,3.1412044 L 29.521708,24.928933"/><rect style="fill:#729fcf;fill-opacity:1;stroke:#204a87;stroke-width:1;stroke-linecap:round;stroke-linejoin:round;stroke-miterlimit:4;stroke-dasharray:none;stroke-dashoffset:.2;stroke-opacity:1" id="rect25214" width="5.01" height="5.004" x="15.499" y="10.502"/><rect style="opacity:.52999998;fill:#729fcf;fill-opacity:1;stroke:#eeeeec;stroke-width:1.00000012;stroke-linecap:round;stroke-linejoin:miter;stroke-miterlimit:4;stroke-dasharray:none;stroke-dashoffset:.2;stroke-opacity:1" id="rect26101" width="3.002" height="3.004" x="16.512" y="11.504"/><path id="path26994" d="M -5.9999995,10.818182 A 4.2727275,4.818182 0 1 1 -14.545455,10.818182 A 4.2727275,4.818182 0 1 1 -5.9999995,10.818182 z" transform="matrix(0.5855363,0,0,0.5210926,14.026527,-2.6290938)" style="fill:#729fcf;fill-opacity:1;stroke:#204a87;stroke-width:1.81036305;stroke-linecap:round;stroke-linejoin:round;stroke-miterlimit:4;stroke-dasharray:none;stroke-dashoffset:.2;stroke-opacity:1"/><path id="path26996" d="M -6.3409622,10.818182 A 3.9317648,4.6233463 0 1 1 -14.204492,10.818182 A 3.9317648,4.6233463 0 1 1 -6.3409622,10.818182 z" transform="matrix(0.4010505,0,0,0.3431036,12.14071,-0.6854705)" style="opacity:.72000002;fill:#729fcf;fill-opacity:1;stroke:#eeeeec;stroke-width:2.44593024;stroke-linecap:round;stroke-linejoin:round;stroke-miterlimit:4;stroke-dasharray:none;stroke-dashoffset:.2;stroke-opacity:1"/><path style="fill:#729fcf;fill-opacity:1;stroke:#204a87;stroke-width:1.81036305;stroke-linecap:round;stroke-linejoin:round;stroke-miterlimit:4;stroke-dasharray:none;stroke-dashoffset:.2;stroke-opacity:1" id="path8639" d="M -5.9999995,10.818182 A 4.2727275,4.818182 0 1 1 -14.545455,10.818182 A 4.2727275,4.818182 0 1 1 -5.9999995,10.818182 z" transform="matrix(0.5855363,0,0,0.5210926,34.974566,19.379605)"/><path style="opacity:.72000002;fill:#729fcf;fill-opacity:1;stroke:#eeeeec;stroke-width:2.44593024;stroke-linecap:round;stroke-linejoin:round;stroke-miterlimit:4;stroke-dasharray:none;stroke-dashoffset:.2;stroke-opacity:1" id="path8641" d="M -6.3409622,10.818182 A 3.9317648,4.6233463 0 1 1 -14.204492,10.818182 A 3.9317648,4.6233463 0 1 1 -6.3409622,10.818182 z" transform="matrix(0.4010505,0,0,0.3431036,33.088749,21.323228)"/></g></svg>