<svg xmlns="http://www.w3.org/2000/svg" xmlns:svg="http://www.w3.org/2000/svg" xmlns:xlink="http://www.w3.org/1999/xlink" id="svg11300" width="32" height="32" version="1.0"><defs id="defs3"><linearGradient id="linearGradient8700"><stop style="stop-color:#000;stop-opacity:1" id="stop8702" offset="0"/><stop style="stop-color:#000;stop-opacity:0" id="stop8704" offset="1"/></linearGradient><linearGradient id="linearGradient4362"><stop style="stop-color:#83a9d8;stop-opacity:1" id="stop4364" offset="0"/><stop style="stop-color:#3465a4;stop-opacity:1" id="stop4366" offset="1"/></linearGradient><linearGradient id="linearGradient8440"><stop style="stop-color:#edeeec;stop-opacity:1" id="stop8442" offset="0"/><stop style="stop-color:#babdb6;stop-opacity:1" id="stop8444" offset="1"/></linearGradient><radialGradient id="radialGradient7917" cx="-30.094" cy="19.634" r="12.989" fx="-30.094" fy="19.634" gradientTransform="matrix(-0.4145162,1.4695513,-2.0469306,-0.5788028,31.56793,58.958808)" gradientUnits="userSpaceOnUse" xlink:href="#linearGradient4362"/><radialGradient id="radialGradient8706" cx="-3.875" cy="35.438" r="8" fx="-3.875" fy="35.438" gradientTransform="matrix(1,0,0,0.3671875,0,22.425292)" gradientUnits="userSpaceOnUse" xlink:href="#linearGradient8700"/><linearGradient id="linearGradient8388" x1="25.058" x2="25.058" y1="47.028" y2="39.999" gradientUnits="userSpaceOnUse" xlink:href="#linearGradient3702"/><radialGradient id="radialGradient8386" cx="4.993" cy="43.5" r="2.5" fx="4.993" fy="43.5" gradientTransform="matrix(2.003784,0,0,1.4,-20.01187,-104.4)" gradientUnits="userSpaceOnUse" xlink:href="#linearGradient3688"/><radialGradient id="radialGradient8384" cx="4.993" cy="43.5" r="2.5" fx="4.993" fy="43.5" gradientTransform="matrix(2.003784,0,0,1.4,27.98813,-17.4)" gradientUnits="userSpaceOnUse" xlink:href="#linearGradient3688"/><radialGradient id="radialGradient8382" cx="8.144" cy="7.268" r="38.159" fx="8.144" fy="7.268" gradientTransform="matrix(0.9767883,0,0,1.0291075,3.3156277,0.9781569)" gradientUnits="userSpaceOnUse" xlink:href="#linearGradient15662"/><radialGradient id="radialGradient8380" cx="8.824" cy="3.756" r="37.752" fx="8.824" fy="3.756" gradientTransform="matrix(0.9988117,0,0,1.0519401,2.8016713,0.4602236)" gradientUnits="userSpaceOnUse" xlink:href="#linearGradient269"/><radialGradient id="radialGradient8378" cx="33.967" cy="35.737" r="86.708" fx="33.967" fy="35.737" gradientTransform="matrix(0.9907871,0,0,1.0604597,-0.6576517,-0.1982243)" gradientUnits="userSpaceOnUse" xlink:href="#linearGradient259"/><linearGradient id="linearGradient8376" x1="33.396" x2="34.17" y1="36.921" y2="38.07" gradientTransform="matrix(-2.48131e-2,-0.756771,0.756567,-2.481981e-2,8.221918,36.1682)" gradientUnits="userSpaceOnUse" xlink:href="#linearGradient2251"/><radialGradient id="radialGradient8374" cx="31.863" cy="2.367" r="37.752" fx="31.863" fy="2.367" gradientTransform="matrix(0.331735,0,0,0.353831,20.10526,9.5823)" gradientUnits="userSpaceOnUse" xlink:href="#linearGradient269"/><radialGradient id="radialGradient8372" cx="30.654" cy="14.937" r="86.708" fx="30.654" fy="14.937" gradientTransform="matrix(0.148355,1.009137e-2,-1.104438e-2,0.162365,25.06011,12.81706)" gradientUnits="userSpaceOnUse" xlink:href="#linearGradient259"/><radialGradient id="radialGradient8370" cx="37.03" cy="12.989" r="4.293" fx="37.03" fy="12.989" gradientTransform="matrix(1.744653,0,0,1.283833,-26.58256,-3.478359)" gradientUnits="userSpaceOnUse" xlink:href="#linearGradient4790"/><linearGradient id="linearGradient3702"><stop style="stop-color:black;stop-opacity:0" id="stop3704" offset="0"/><stop id="stop3710" offset=".5" style="stop-color:black;stop-opacity:1"/><stop style="stop-color:black;stop-opacity:0" id="stop3706" offset="1"/></linearGradient><linearGradient id="linearGradient3688"><stop style="stop-color:black;stop-opacity:1" id="stop3690" offset="0"/><stop style="stop-color:black;stop-opacity:0" id="stop3692" offset="1"/></linearGradient><linearGradient id="linearGradient4790"><stop style="stop-color:#000;stop-opacity:1" id="stop4792" offset="0"/><stop style="stop-color:#000;stop-opacity:0" id="stop4794" offset="1"/></linearGradient><linearGradient id="linearGradient2251"><stop style="stop-color:#fff;stop-opacity:1" id="stop2253" offset="0"/><stop style="stop-color:#fff;stop-opacity:0" id="stop2255" offset="1"/></linearGradient><linearGradient id="linearGradient15662"><stop id="stop15664" offset="0" style="stop-color:#fff;stop-opacity:1"/><stop id="stop15666" offset="1" style="stop-color:#f8f8f8;stop-opacity:1"/></linearGradient><linearGradient id="linearGradient269"><stop id="stop270" offset="0" style="stop-color:#a3a3a3;stop-opacity:1"/><stop id="stop271" offset="1" style="stop-color:#8a8a8a;stop-opacity:1"/></linearGradient><linearGradient id="linearGradient259"><stop id="stop260" offset="0" style="stop-color:#fafafa;stop-opacity:1"/><stop id="stop261" offset="1" style="stop-color:#bbb;stop-opacity:1"/></linearGradient><linearGradient id="linearGradient3990"><stop id="stop3992" offset="0" style="stop-color:#6795cf;stop-opacity:1"/><stop id="stop3994" offset="1" style="stop-color:#3465a4;stop-opacity:1"/></linearGradient><radialGradient id="radialGradient8125" cx="56.704" cy="10.241" r="14.75" fx="56.704" fy="10.241" gradientTransform="matrix(0.4981385,0.171671,-0.2258424,0.649465,-9.7097776,3.3725039)" gradientUnits="userSpaceOnUse" xlink:href="#linearGradient8440"/><radialGradient id="radialGradient8129" cx="-45.67" cy="10.424" r="13.104" fx="-45.67" fy="10.424" gradientTransform="matrix(8.7606339e-2,1.3143805,-1.7009086,0.1161372,65.817413,67.547452)" gradientUnits="userSpaceOnUse" xlink:href="#linearGradient3990"/></defs><metadata id="metadata4"/><g id="layer1"><path style="opacity:.2;fill:url(#radialGradient8706);fill-opacity:1;stroke:none" id="path8698" d="M 4.1249998,35.4375 A 8,2.9375002 0 1 1 -11.875,35.4375 A 8,2.9375002 0 1 1 4.1249998,35.4375 z" transform="matrix(0.9649971,0,0,0.8110667,15.134082,0.8431492)"/><path id="path8" d="M 18.951532,0.4771201 C 13.698632,0.4771201 12.713688,9.0220861 15.668736,9.0220861 C 18.623359,9.0220861 24.204643,0.4771201 18.951532,0.4771201 z M 10.831286,1.5214201 C 10.747873,1.5210916 10.663482,1.53059 10.571063,1.5442881 C 7.6149485,1.9826196 8.6567414,7.852774 10.230779,7.9625406 C 11.755001,8.0688764 13.417067,1.5315968 10.831286,1.5214201 z M 5.8070126,3.8463215 C 5.626363,3.8328462 5.4225358,3.8785421 5.1998327,3.9835296 C 2.8238324,5.1036289 4.8362681,9.7215992 6.1673208,9.4108395 C 7.3745524,9.1296554 7.5532803,3.9765851 5.8070126,3.8463215 z M 1.9237087,7.4746921 C 1.7171278,7.4667494 1.4943297,7.5386001 1.2564763,7.7262389 C -0.64552247,9.227591 1.8989409,12.854682 3.0179748,12.292194 C 3.9971269,11.799802 3.3697728,7.5302891 1.9237087,7.4746921 z M 12.165757,10.24933 C 8.182101,10.403824 3.2889094,12.742721 2.4174614,17.201165 C 1.4239739,22.279909 6.5017388,29.321144 11.805449,29.321144 C 14.414605,29.321144 17.427673,26.632612 17.990713,23.223041 C 18.420734,20.623055 12.929289,21.662719 13.126577,23.383116 C 13.362936,25.445251 11.799155,26.465707 10.270814,25.13632 C 5.4054411,20.904483 18.328656,18.790208 17.476943,13.00872 C 17.189743,11.059142 14.891414,10.14362 12.165757,10.24933 z" style="fill:url(#radialGradient7917);fill-opacity:1;stroke:#204a87;stroke-width:.99999994;stroke-opacity:1"/><path style="fill:none;stroke:#fff;stroke-width:1;stroke-miterlimit:4;stroke-opacity:.29166666;stroke-dasharray:none" id="path8152" d="M 18.96875,1.46875 C 17.910517,1.46875 17.130869,1.8564053 16.5,2.5 C 15.871966,3.1407011 15.418442,4.0758059 15.1875,5 C 14.958156,5.9177957 14.988175,6.8480514 15.15625,7.40625 C 15.241663,7.6899177 15.366415,7.8699054 15.4375,7.9375 C 15.526384,8.0220193 15.5219,8.03125 15.6875,8.03125 C 15.802078,8.03125 16.075112,7.959058 16.40625,7.78125 C 16.737388,7.603442 17.152728,7.3225409 17.53125,6.96875 C 18.293357,6.2564351 19.034221,5.2389954 19.53125,4.28125 C 20.025381,3.3290911 20.202206,2.3964758 20.125,2.03125 C 20.082717,1.8312347 20.06657,1.7962336 19.90625,1.6875 C 19.764646,1.5914597 19.491767,1.46875 18.96875,1.46875 z M 10.71875,2.5 C 10.28545,2.5642495 10.136358,2.7074821 9.9375,3.125 C 9.7502801,3.5180843 9.6500924,4.2011962 9.6875,4.84375 C 9.7250009,5.4879057 9.8912304,6.1378515 10.09375,6.5625 C 10.10507,6.5719721 10.115528,6.5824298 10.125,6.59375 C 10.150589,6.6822351 10.216936,6.7555513 10.28125,6.84375 C 10.349443,6.739115 10.441735,6.6058806 10.5,6.5 C 10.757915,6.0313148 11.001583,5.3349569 11.125,4.625 C 11.247162,3.9222639 11.203529,3.1782866 11.09375,2.8125 C 11.038322,2.6278148 10.989805,2.5502634 10.96875,2.53125 C 10.936109,2.5017737 10.9343,2.4987701 10.9375,2.5 C 10.9407,2.5012299 10.915643,2.5002829 10.84375,2.5 C 10.756572,2.4996566 10.747222,2.4957799 10.71875,2.5 z M 5.71875,4.84375 C 5.7041621,4.8481983 5.6721488,4.852773 5.625,4.875 C 5.29026,5.0328038 5.2042345,5.1946787 5.125,5.5625 C 5.0475698,5.9219444 5.0724412,6.4720471 5.21875,6.96875 C 5.3664823,7.4702854 5.6190877,7.9486112 5.84375,8.21875 C 5.8607743,8.2406659 5.8595568,8.2316953 5.875,8.25 C 5.8842278,8.2184412 5.8907518,8.1907595 5.90625,8.15625 C 6.0225177,7.7752371 6.1029838,7.1716368 6.09375,6.59375 C 6.0845096,6.0154402 6.0059317,5.4404467 5.875,5.125 C 5.8035802,4.9529324 5.7422629,4.8699273 5.71875,4.84375 z M 1.84375,8.5 C 1.5905209,8.699888 1.5703372,8.8090026 1.5625,9.15625 C 1.5551482,9.4819914 1.6416784,9.9245903 1.84375,10.3125 C 2.0221373,10.654944 2.2867578,10.966221 2.5,11.15625 C 2.5261232,10.830896 2.4909954,10.32759 2.40625,9.875 C 2.316006,9.3930449 2.1579478,8.9551521 2,8.6875 C 1.9324951,8.5731088 1.9073888,8.5324131 1.875,8.5 C 1.872388,8.497386 1.8460808,8.5022136 1.84375,8.5 z M 12.1875,11.25 C 10.366902,11.320607 8.2882445,11.8854 6.625,12.9375 C 4.9599508,13.990741 3.7499746,15.487829 3.375,17.40625 C 2.9573816,19.541131 3.8527907,22.345925 5.53125,24.5625 C 7.2099277,26.779363 9.5901891,28.3125 11.8125,28.3125 C 12.777941,28.312501 13.964692,27.757035 14.96875,26.8125 C 15.972808,25.867965 16.789791,24.555936 17.03125,23.09375 C 17.06235,22.905713 17.054414,22.86029 17.0625,22.875 C 17.070586,22.88971 17.03157,22.848406 16.90625,22.78125 C 16.750475,22.697773 16.255068,22.597937 15.75,22.65625 C 15.2346,22.715755 14.649221,22.903699 14.34375,23.09375 C 14.196192,23.185554 14.124787,23.298979 14.09375,23.34375 C 14.211934,24.604948 13.807141,25.791587 12.875,26.375 C 11.913164,26.977002 10.645841,26.73577 9.65625,25.875 C 8.9556505,25.265626 8.4301078,24.625595 8.25,23.875 C 8.0705928,23.127321 8.2425424,22.385198 8.59375,21.78125 C 9.2821193,20.597507 10.513864,19.710097 11.78125,18.8125 C 13.051107,17.913151 14.408203,17.022126 15.3125,16.0625 C 16.222921,15.096374 16.659699,14.240298 16.5,13.15625 C 16.406637,12.522476 16.091373,12.077284 15.34375,11.71875 C 14.605308,11.364618 13.436472,11.201562 12.1875,11.25 z"/><path style="fill:url(#radialGradient8125);fill-opacity:1;fill-rule:evenodd;stroke:#888a85;stroke-width:1;stroke-linecap:butt;stroke-linejoin:miter;stroke-miterlimit:4;stroke-opacity:1;stroke-dasharray:none;stroke-dashoffset:0" id="path2212" d="M 15.448969,13.988862 C 15.271863,14.094993 15.221889,14.313917 15.324441,14.484526 L 16.834861,16.997268 C 16.49787,17.350866 16.217391,17.752102 15.968409,18.16043 L 13.306109,17.5763 C 13.111334,17.533297 12.923495,17.656173 12.878566,17.857269 L 12.219131,20.72914 C 12.174205,20.930235 12.316254,21.130395 12.511029,21.173399 L 14.968819,21.70671 C 14.970227,22.28307 15.03516,22.864456 15.186782,23.433628 L 12.756838,24.88976 C 12.585649,24.992344 12.526211,25.208918 12.63231,25.385423 L 14.164619,27.934584 C 14.270719,28.111091 14.490093,28.160585 14.661281,28.058003 L 17.072952,26.612818 C 17.468631,26.98397 17.912852,27.279085 18.37627,27.540737 L 17.724158,30.383452 C 17.677355,30.584123 17.792481,30.775637 17.98684,30.820451 L 20.846323,31.484557 C 21.040681,31.529372 21.227059,31.40426 21.273862,31.203589 L 21.940537,28.426446 C 22.50573,28.40962 23.076159,28.340671 23.631834,28.180725 L 25.098472,30.620634 C 25.201026,30.791241 25.418025,30.850183 25.595134,30.744052 L 28.152969,29.211281 C 28.330076,29.10515 28.38005,28.886226 28.277498,28.715618 L 26.788967,26.239291 C 27.134746,25.860504 27.411856,25.436342 27.659126,24.999607 L 30.335992,25.64931 C 30.52977,25.696547 30.743432,25.575676 30.792748,25.375601 L 31.49967,22.500042 C 31.548986,22.299967 31.430769,22.11028 31.236989,22.063042 L 28.549179,21.395131 C 28.52901,20.902747 28.460997,20.401883 28.331046,19.915987 L 30.724449,18.481748 C 30.895636,18.379167 30.955076,18.162595 30.848977,17.986088 L 29.316668,15.436928 C 29.210569,15.260421 28.991196,15.210926 28.820007,15.313509 L 26.444874,16.736798 C 26.024504,16.33986 25.564565,16.003242 25.068563,15.728783 L 25.892261,13.006151 C 25.9521,12.808937 25.857108,12.604645 25.66612,12.547254 L 22.839644,11.69 C 22.648654,11.632609 22.460999,11.755548 22.401156,11.952761 L 21.537215,14.773813 C 21.526857,14.807947 21.527044,14.845698 21.526183,14.879491 C 21.022592,14.895908 20.510308,14.960669 20.013885,15.092251 L 18.503465,12.579509 C 18.400913,12.4089 18.183913,12.349959 18.006804,12.45609 L 15.448969,13.988862 z M 20.41267,19.435188 C 21.840607,18.579503 23.413072,19.052103 24.134046,20.251519 C 24.855019,21.450936 24.533095,23.058739 23.105159,23.914426 C 21.67722,24.770112 20.104755,24.297512 19.383781,23.098095 C 18.662808,21.898682 18.984734,20.290875 20.41267,19.435188 z"/><path style="fill:none;stroke:#fff;stroke-width:1.46906316;stroke-linecap:butt;stroke-linejoin:miter;stroke-miterlimit:4;stroke-opacity:.36862745;stroke-dasharray:none;stroke-dashoffset:0" id="path3195" d="M 61,3.75 L 61,7.15625 C 60.994616,7.7894057 60.546097,8.3565363 59.9375,8.53125 C 59.386869,8.6837256 58.816246,8.9209778 58.25,9.21875 C 57.713594,9.4994334 57.069126,9.4114214 56.625,9 C 56.614585,9.0002643 56.604165,9.0002643 56.59375,9 L 54.375,6.875 L 52.59375,8.75 L 54.625,10.65625 C 55.106075,11.105079 55.227478,11.832061 54.90625,12.40625 C 54.522161,13.050955 54.197903,13.718268 54,14.40625 C 53.825287,15.014848 53.258156,15.463366 52.625,15.46875 L 49.375,15.46875 L 49.375,18.03125 L 52.59375,18.03125 C 53.226906,18.036634 53.794037,18.485152 53.96875,19.09375 C 54.140921,19.702649 54.426658,20.279405 54.78125,20.90625 C 55.088417,21.455865 54.999119,22.171358 54.5625,22.625 L 52.21875,25.09375 L 54,26.8125 L 56.3125,24.4375 C 56.761329,23.956425 57.488311,23.866272 58.0625,24.1875 C 58.714156,24.553318 59.365806,24.853994 60.03125,25.03125 C 60.639848,25.205963 61.088366,25.773094 61.09375,26.40625 L 61.09375,29.6875 L 63.65625,29.6875 L 63.65625,26.34375 C 63.654225,25.725216 64.069009,25.163014 64.65625,24.96875 C 65.227906,24.79713 65.817911,24.52165 66.40625,24.1875 C 66.955865,23.880333 67.671358,23.969631 68.125,24.40625 L 70.375,26.625 L 72.1875,24.84375 L 69.9375,22.59375 C 69.474459,22.131314 69.383786,21.405937 69.71875,20.84375 C 70.025881,20.28007 70.268911,19.744493 70.4375,19.15625 C 70.612213,18.547652 71.179344,18.099134 71.8125,18.09375 L 75,18.09375 L 75,15.53125 L 71.84375,15.53125 C 71.210594,15.525866 70.643463,15.077348 70.46875,14.46875 C 70.273958,13.771057 69.984428,13.122853 69.625,12.5 C 69.303772,11.925811 69.425175,11.198829 69.90625,10.75 C 69.905986,10.739585 69.905986,10.729165 69.90625,10.71875 L 72.34375,8.5 L 70.6875,6.65625 L 68.125,8.96875 L 68.09375,8.9375 C 67.657468,9.4286929 66.963627,9.6005954 66.375,9.28125 C 66.364585,9.2815143 66.354165,9.2815143 66.34375,9.28125 C 65.770033,8.9613181 65.217513,8.7026278 64.625,8.53125 C 64.016403,8.3565363 63.567884,7.7894057 63.5625,7.15625 L 63.5625,3.75 L 61,3.75 z M 62.21875,11.5 C 65.373792,11.5 67.71875,13.957178 67.71875,16.78125 C 67.718749,19.605323 65.373793,22.062499 62.21875,22.0625 C 59.063706,22.062501 56.71875,19.605323 56.71875,16.78125 C 56.718748,13.957178 59.063706,11.5 62.21875,11.5 z" transform="matrix(0.584648,-0.3503478,0.3502422,0.5826649,-20.49094,33.697311)"/></g></svg>