<svg xmlns="http://www.w3.org/2000/svg" xmlns:svg="http://www.w3.org/2000/svg" xmlns:xlink="http://www.w3.org/1999/xlink" id="svg11622" width="32" height="32" version="1.0"><metadata id="metadata212"/><defs id="defs11624"><linearGradient id="linearGradient8985"><stop style="stop-color:#fff;stop-opacity:1" id="stop8987" offset="0"/><stop id="stop8989" offset=".311" style="stop-color:#fff;stop-opacity:1"/><stop id="stop8991" offset=".5" style="stop-color:#fff;stop-opacity:0"/><stop style="stop-color:#fff;stop-opacity:1" id="stop8993" offset=".731"/><stop id="stop8995" offset="1" style="stop-color:#fff;stop-opacity:1"/></linearGradient><linearGradient id="linearGradient8941"><stop id="stop8949" offset="0" style="stop-color:#204a87;stop-opacity:1"/><stop style="stop-color:#204a87;stop-opacity:1" id="stop8955" offset=".311"/><stop style="stop-color:#204a87;stop-opacity:0" id="stop8951" offset=".5"/><stop id="stop8953" offset=".731" style="stop-color:#204a87;stop-opacity:1"/><stop style="stop-color:#204a87;stop-opacity:1" id="stop8945" offset="1"/></linearGradient><linearGradient id="linearGradient4138"><stop style="stop-color:#5084c8;stop-opacity:1" id="stop4140" offset="0"/><stop id="stop8937" offset=".304" style="stop-color:#3465a4;stop-opacity:1"/><stop id="stop8935" offset=".5" style="stop-color:#3465a4;stop-opacity:0"/><stop style="stop-color:#3465a4;stop-opacity:1" id="stop8939" offset=".729"/><stop style="stop-color:#5085c8;stop-opacity:1" id="stop4142" offset="1"/></linearGradient><linearGradient id="linearGradient47870"><stop id="stop47872" offset="0" style="stop-color:#000;stop-opacity:0"/><stop id="stop47878" offset=".5" style="stop-color:#000;stop-opacity:1"/><stop id="stop47874" offset="1" style="stop-color:#000;stop-opacity:0"/></linearGradient><linearGradient id="linearGradient51765"><stop id="stop51767" offset="0" style="stop-color:#000;stop-opacity:1"/><stop id="stop51769" offset="1" style="stop-color:#000;stop-opacity:0"/></linearGradient><linearGradient id="linearGradient3690"><stop style="stop-color:white;stop-opacity:1" id="stop3692" offset="0"/><stop style="stop-color:white;stop-opacity:.46875" id="stop3694" offset="1"/></linearGradient><linearGradient id="linearGradient3674"><stop style="stop-color:#3465a4;stop-opacity:1" id="stop3676" offset="0"/><stop style="stop-color:#729fcf;stop-opacity:1" id="stop3678" offset="1"/></linearGradient><linearGradient id="linearGradient2781"><stop style="stop-color:#d3d7cf;stop-opacity:1" id="stop2783" offset="0"/><stop style="stop-color:#eeeeec;stop-opacity:1" id="stop2785" offset="1"/></linearGradient><linearGradient id="linearGradient5137"><stop style="stop-color:#eeeeec;stop-opacity:1" id="stop5139" offset="0"/><stop style="stop-color:#e6e6e3;stop-opacity:1" id="stop5141" offset="1"/></linearGradient><linearGradient id="linearGradient5027"><stop id="stop5029" offset="0" style="stop-color:#3c669c;stop-opacity:1"/><stop id="stop5031" offset="1" style="stop-color:#9fbbd8;stop-opacity:1"/></linearGradient><linearGradient id="linearGradient7988" x1="23.931" x2="23.931" y1="8" y2="38.7" gradientTransform="matrix(0.3734474,0,0,0.3296685,2.065114,1.9138838)" gradientUnits="userSpaceOnUse" xlink:href="#linearGradient5027"/><linearGradient id="linearGradient7991" x1="17.248" x2="39.904" y1="6.376" y2="38.876" gradientTransform="matrix(0.4218886,0,0,0.4993679,0.8674292,-0.2212992)" gradientUnits="userSpaceOnUse" xlink:href="#linearGradient5137"/><linearGradient id="linearGradient8005" x1="23.069" x2="23.069" y1="6.799" y2="12.403" gradientTransform="matrix(0.5874968,0,0,0.5312497,13.019283,6.7740582)" gradientUnits="userSpaceOnUse" xlink:href="#linearGradient3674"/><linearGradient id="linearGradient8074" x1="9.5" x2="9.5" y1="16.264" y2="13.409" gradientTransform="matrix(0.1734834,0,0,0.1507392,5.6861876,5.8939224)" gradientUnits="userSpaceOnUse" xlink:href="#linearGradient3690"/><linearGradient id="linearGradient8076" x1="23.069" x2="23.069" y1="6.799" y2="12.403" gradientTransform="matrix(0.21236,0,0,0.3940428,4.7161898,3.1584489)" gradientUnits="userSpaceOnUse" xlink:href="#linearGradient3674"/><linearGradient id="linearGradient8078" x1="24.926" x2="24.926" y1="40" y2="19.539" gradientTransform="matrix(0.21236,0,0,0.1577948,4.7161898,6.2671105)" gradientUnits="userSpaceOnUse" xlink:href="#linearGradient2781"/><linearGradient id="linearGradient8086" x1="24.926" x2="24.926" y1="40" y2="19.539" gradientTransform="matrix(0.1516209,0,0,0.1045148,10.211223,5.3716689)" gradientUnits="userSpaceOnUse" xlink:href="#linearGradient2781"/><linearGradient id="linearGradient8088" x1="23.069" x2="23.069" y1="6.799" y2="12.403" gradientTransform="matrix(0.1519557,0,0,0.2735404,10.208377,3.1872964)" gradientUnits="userSpaceOnUse" xlink:href="#linearGradient3674"/><linearGradient id="linearGradient8090" x1="9.5" x2="9.5" y1="16.264" y2="13.409" gradientTransform="matrix(0.1038591,0,0,7.4796322e-2,11.413034,5.7241638)" gradientUnits="userSpaceOnUse" xlink:href="#linearGradient3690"/><linearGradient id="linearGradient8092" x1="32.085" x2="32.085" y1="-14.402" y2="-5.563" gradientTransform="matrix(0.9788196,0,0,0.7154223,-8.5008021,52.112719)" gradientUnits="userSpaceOnUse" xlink:href="#linearGradient47870"/><radialGradient id="radialGradient8094" cx="51.438" cy="-12.203" r="2.172" fx="51.438" fy="-12.203" gradientTransform="matrix(1.9576392,-8.146468e-7,6.6614241e-7,1.4565793,-59.017557,62.738067)" gradientUnits="userSpaceOnUse" xlink:href="#linearGradient51765"/><radialGradient id="radialGradient8096" cx="51.438" cy="-12.203" r="2.172" fx="51.438" fy="-12.203" gradientTransform="matrix(-1.9576392,-9.2540676e-8,-1.2888861e-7,1.4565793,110.01781,62.73803)" gradientUnits="userSpaceOnUse" xlink:href="#linearGradient51765"/><linearGradient id="linearGradient8141" x1="32.085" x2="32.085" y1="-14.402" y2="-5.563" gradientTransform="matrix(0.9788196,0,0,0.7154223,-8.5008021,52.112719)" gradientUnits="userSpaceOnUse" xlink:href="#linearGradient47870"/><radialGradient id="radialGradient8143" cx="51.438" cy="-12.203" r="2.172" fx="51.438" fy="-12.203" gradientTransform="matrix(1.9576392,-8.146468e-7,6.6614241e-7,1.4565793,-59.017557,62.738067)" gradientUnits="userSpaceOnUse" xlink:href="#linearGradient51765"/><radialGradient id="radialGradient8145" cx="51.438" cy="-12.203" r="2.172" fx="51.438" fy="-12.203" gradientTransform="matrix(-1.9576392,-9.2540676e-8,-1.2888861e-7,1.4565793,110.01781,62.73803)" gradientUnits="userSpaceOnUse" xlink:href="#linearGradient51765"/><linearGradient id="linearGradient8147" x1="17.248" x2="39.904" y1="6.376" y2="38.876" gradientTransform="matrix(0.4218886,0,0,0.4993679,0.8674292,-0.2212992)" gradientUnits="userSpaceOnUse" xlink:href="#linearGradient5137"/><linearGradient id="linearGradient8149" x1="23.931" x2="23.931" y1="8" y2="38.7" gradientTransform="matrix(0.3734474,0,0,0.3296685,2.065114,1.9138838)" gradientUnits="userSpaceOnUse" xlink:href="#linearGradient5027"/><linearGradient id="linearGradient8151" x1="24.926" x2="24.926" y1="40" y2="19.539" gradientTransform="matrix(0.21236,0,0,0.1577948,4.7161898,6.2671105)" gradientUnits="userSpaceOnUse" xlink:href="#linearGradient2781"/><linearGradient id="linearGradient8153" x1="23.069" x2="23.069" y1="6.799" y2="12.403" gradientTransform="matrix(0.21236,0,0,0.3940428,4.7161898,3.1584489)" gradientUnits="userSpaceOnUse" xlink:href="#linearGradient3674"/><linearGradient id="linearGradient8155" x1="9.5" x2="9.5" y1="16.264" y2="13.409" gradientTransform="matrix(0.1734834,0,0,0.1507392,5.6861876,5.8939224)" gradientUnits="userSpaceOnUse" xlink:href="#linearGradient3690"/><linearGradient id="linearGradient8157" x1="24.926" x2="24.926" y1="40" y2="19.539" gradientTransform="matrix(0.1516209,0,0,0.1045148,10.211223,5.3716689)" gradientUnits="userSpaceOnUse" xlink:href="#linearGradient2781"/><linearGradient id="linearGradient8159" x1="23.069" x2="23.069" y1="6.799" y2="12.403" gradientTransform="matrix(0.1519557,0,0,0.2735404,10.208377,3.1872964)" gradientUnits="userSpaceOnUse" xlink:href="#linearGradient3674"/><linearGradient id="linearGradient8161" x1="9.5" x2="9.5" y1="16.264" y2="13.409" gradientTransform="matrix(0.1038591,0,0,7.4796322e-2,11.413034,5.7241638)" gradientUnits="userSpaceOnUse" xlink:href="#linearGradient3690"/><linearGradient id="linearGradient8933" x1="2.764" x2="21.77" y1="2.609" y2="21.946" gradientTransform="matrix(0.7562312,0,0,0.768631,4.991848,6.0690782)" gradientUnits="userSpaceOnUse" xlink:href="#linearGradient4138"/><linearGradient id="linearGradient8947" x1="4.443" x2="23.449" y1="6.321" y2="25.659" gradientTransform="matrix(0.7562312,0,0,0.768631,3.7218495,3.2156812)" gradientUnits="userSpaceOnUse" xlink:href="#linearGradient8941"/><linearGradient id="linearGradient8997" x1="4.443" x2="23.449" y1="6.321" y2="25.659" gradientTransform="matrix(0.7562312,0,0,0.768631,3.7218495,3.2156812)" gradientUnits="userSpaceOnUse" xlink:href="#linearGradient8985"/><linearGradient id="linearGradient9001" x1="4.443" x2="23.449" y1="6.321" y2="25.659" gradientTransform="matrix(0.7562312,0,0,0.768631,3.7218495,3.2156812)" gradientUnits="userSpaceOnUse" xlink:href="#linearGradient8985"/><linearGradient id="linearGradient9003" x1="2.764" x2="21.77" y1="2.609" y2="21.946" gradientTransform="matrix(0.653891,0,0,0.6645936,5.3270568,7.2827752)" gradientUnits="userSpaceOnUse" xlink:href="#linearGradient4138"/><linearGradient id="linearGradient9005" x1="4.443" x2="23.449" y1="6.321" y2="25.659" gradientTransform="matrix(0.653891,0,0,0.6645936,4.2289262,4.8155974)" gradientUnits="userSpaceOnUse" xlink:href="#linearGradient8941"/></defs><g id="g8098"><g id="g54724" transform="matrix(0.5017447,0,0,0.563927,-1.8696996,-7.8001371)"><rect id="rect46899" style="opacity:.3;fill:url(#linearGradient8092);fill-opacity:1;fill-rule:evenodd;stroke:none;stroke-width:1.02400005;stroke-linecap:butt;stroke-linejoin:miter;stroke-miterlimit:4;stroke-dasharray:none;stroke-dashoffset:0;stroke-opacity:1" width="32.357" height="6.323" x="9.322" y="41.809"/><path id="path48849" style="opacity:.3;fill:url(#radialGradient8094);fill-opacity:1;fill-rule:evenodd;stroke:none;stroke-width:1.02400005;stroke-linecap:butt;stroke-linejoin:miter;stroke-miterlimit:4;stroke-dasharray:none;stroke-dashoffset:0;stroke-opacity:1" d="M 41.6785,41.799698 L 41.6785,48.126714 C 44.022298,48.102828 45.930248,46.705313 45.930248,44.974385 C 45.930248,43.243458 44.022299,41.823584 41.6785,41.799698 z"/><path id="path52742" style="opacity:.3;fill:url(#radialGradient8096);fill-opacity:1;fill-rule:evenodd;stroke:none;stroke-width:1.02400005;stroke-linecap:butt;stroke-linejoin:miter;stroke-miterlimit:4;stroke-dasharray:none;stroke-dashoffset:0;stroke-opacity:1" d="M 9.3217476,41.799698 L 9.3217476,48.126714 C 6.9779494,48.102828 5.07,46.705313 5.07,44.974385 C 5.07,43.243458 6.9779484,41.823584 9.3217476,41.799698 z"/></g><path style="fill:url(#linearGradient7991);fill-opacity:1;fill-rule:evenodd;stroke:#888a85;stroke-width:.99999994;stroke-linecap:butt;stroke-linejoin:miter;stroke-miterlimit:4;stroke-opacity:1" id="rect5040" d="M 2.9691801,1.5042641 L 19.055298,1.5042641 C 19.909674,1.5042641 20.493026,1.8154883 20.493026,2.9133417 L 20.497646,16.411854 C 20.497646,17.256818 20.274741,17.518068 19.639247,17.518068 L 2.3575667,17.508613 C 1.8600451,17.494234 1.5059438,17.261595 1.4992642,16.500239 L 1.5056669,2.8195881 C 1.5056669,1.9337964 2.1944208,1.5042641 2.9691801,1.5042641 z"/><path style="fill:url(#linearGradient7988);fill-opacity:1;fill-rule:evenodd;stroke:#555753;stroke-width:1.00000012px;stroke-linecap:butt;stroke-linejoin:miter;stroke-opacity:1" id="rect9208" d="M 4.4952236,4.4989971 L 17.508716,4.4989971 L 17.508716,14.507258 L 4.4952236,14.507258 L 4.4952236,4.4989971 z"/><path style="fill:none;fill-opacity:1;fill-rule:evenodd;stroke:#fff;stroke-width:1;stroke-linecap:butt;stroke-linejoin:miter;stroke-miterlimit:4;stroke-opacity:1" id="path5145" d="M 3.4300258,2.4979514 C 2.916156,2.4979514 2.4846491,2.7248857 2.4846491,3.3106439 L 2.5062252,15.987297 C 2.5086873,16.266018 2.5634675,16.352557 2.616724,16.405994 C 2.6699807,16.459429 2.7824893,16.501594 2.9727753,16.507059 L 19.05646,16.521496 C 19.312295,16.521496 19.393154,16.474825 19.42479,16.43487 C 19.456424,16.394913 19.510733,16.249741 19.510733,15.900671 L 19.489156,3.3972706 C 19.489156,2.5623511 19.055201,2.4979514 18.421003,2.4979514 L 3.4300258,2.4979514 z"/><rect id="rect1915" width="7.008" height="4.813" x="6.521" y="7.687" style="fill:url(#linearGradient8078);fill-opacity:1;stroke:#888a85;stroke-width:1.00000036;stroke-miterlimit:4;stroke-dasharray:none;stroke-opacity:1"/><path id="path1917" d="M 6.5212485,8.6870017 L 6.5212485,7.2959006 C 6.5212485,6.8593016 6.7106737,6.5078152 6.945969,6.5078152 L 13.104407,6.5078152 C 13.339702,6.5078152 13.529127,6.8593016 13.529127,7.2959006 L 13.529127,8.6870017" style="fill:url(#linearGradient8076);fill-opacity:1;stroke:#204a87;stroke-width:1.0000006;stroke-miterlimit:4;stroke-opacity:1"/><rect id="rect1919" width="5.022" height="4.016" x="7.509" y="7.503" style="opacity:.8;fill:none;fill-opacity:1;stroke:url(#linearGradient8074);stroke-width:1.00000107;stroke-miterlimit:4;stroke-dasharray:none;stroke-opacity:1"/><rect style="fill:url(#linearGradient8086);fill-opacity:1;stroke:#888a85;stroke-width:1.00000036;stroke-miterlimit:4;stroke-dasharray:none;stroke-opacity:1" id="rect8080" width="5.003" height="3.188" x="11.5" y="6.312"/><path style="fill:url(#linearGradient8088);fill-opacity:1;stroke:#204a87;stroke-width:1.00000036;stroke-miterlimit:4;stroke-opacity:1" id="path8082" d="M 11.5,7.0251603 L 11.5,6.0594726 C 11.5,5.7563901 11.635545,5.5123918 11.803913,5.5123918 L 16.210627,5.5123918 C 16.378995,5.5123918 16.514539,5.7563901 16.514539,6.0594726 L 16.514539,7.0251603"/><rect style="opacity:.8;fill:none;fill-opacity:1;stroke:url(#linearGradient8090);stroke-width:1.00000083;stroke-miterlimit:4;stroke-dasharray:none;stroke-opacity:1" id="rect8084" width="3.006" height="1.993" x="12.504" y="6.522"/></g><g id="g8113" transform="translate(10.022097,11.982345)"><g id="g8115" transform="matrix(0.5017447,0,0,0.563927,-1.8696996,-7.8001371)"><rect width="32.357" height="6.323" x="9.322" y="41.809" style="opacity:.3;fill:url(#linearGradient8141);fill-opacity:1;fill-rule:evenodd;stroke:none;stroke-width:1.02400005;stroke-linecap:butt;stroke-linejoin:miter;stroke-miterlimit:4;stroke-dasharray:none;stroke-dashoffset:0;stroke-opacity:1" id="rect8117"/><path d="M 41.6785,41.799698 L 41.6785,48.126714 C 44.022298,48.102828 45.930248,46.705313 45.930248,44.974385 C 45.930248,43.243458 44.022299,41.823584 41.6785,41.799698 z" style="opacity:.3;fill:url(#radialGradient8143);fill-opacity:1;fill-rule:evenodd;stroke:none;stroke-width:1.02400005;stroke-linecap:butt;stroke-linejoin:miter;stroke-miterlimit:4;stroke-dasharray:none;stroke-dashoffset:0;stroke-opacity:1" id="path8119"/><path d="M 9.3217476,41.799698 L 9.3217476,48.126714 C 6.9779494,48.102828 5.07,46.705313 5.07,44.974385 C 5.07,43.243458 6.9779484,41.823584 9.3217476,41.799698 z" style="opacity:.3;fill:url(#radialGradient8145);fill-opacity:1;fill-rule:evenodd;stroke:none;stroke-width:1.02400005;stroke-linecap:butt;stroke-linejoin:miter;stroke-miterlimit:4;stroke-dasharray:none;stroke-dashoffset:0;stroke-opacity:1" id="path8121"/></g><path id="path8123" d="M 2.9691801,1.5042641 L 19.055298,1.5042641 C 19.909674,1.5042641 20.493026,1.8154883 20.493026,2.9133417 L 20.497646,16.411854 C 20.497646,17.256818 20.274741,17.518068 19.639247,17.518068 L 2.3575667,17.508613 C 1.8600451,17.494234 1.5059438,17.261595 1.4992642,16.500239 L 1.5056669,2.8195881 C 1.5056669,1.9337964 2.1944208,1.5042641 2.9691801,1.5042641 z" style="fill:url(#linearGradient8147);fill-opacity:1;fill-rule:evenodd;stroke:#888a85;stroke-width:.99999994;stroke-linecap:butt;stroke-linejoin:miter;stroke-miterlimit:4;stroke-opacity:1"/><path id="path8125" d="M 4.4952236,4.4989971 L 17.508716,4.4989971 L 17.508716,14.507258 L 4.4952236,14.507258 L 4.4952236,4.4989971 z" style="fill:url(#linearGradient8149);fill-opacity:1;fill-rule:evenodd;stroke:#555753;stroke-width:1.00000012px;stroke-linecap:butt;stroke-linejoin:miter;stroke-opacity:1"/><path id="path8127" d="M 3.4300258,2.4979514 C 2.916156,2.4979514 2.4846491,2.7248857 2.4846491,3.3106439 L 2.5062252,15.987297 C 2.5086873,16.266018 2.5634675,16.352557 2.616724,16.405994 C 2.6699807,16.459429 2.7824893,16.501594 2.9727753,16.507059 L 19.05646,16.521496 C 19.312295,16.521496 19.393154,16.474825 19.42479,16.43487 C 19.456424,16.394913 19.510733,16.249741 19.510733,15.900671 L 19.489156,3.3972706 C 19.489156,2.5623511 19.055201,2.4979514 18.421003,2.4979514 L 3.4300258,2.4979514 z" style="fill:none;fill-opacity:1;fill-rule:evenodd;stroke:#fff;stroke-width:1;stroke-linecap:butt;stroke-linejoin:miter;stroke-miterlimit:4;stroke-opacity:1"/><rect style="fill:url(#linearGradient8151);fill-opacity:1;stroke:#888a85;stroke-width:1.00000036;stroke-miterlimit:4;stroke-dasharray:none;stroke-opacity:1" id="rect8129" width="7.008" height="4.813" x="6.521" y="7.687"/><path style="fill:url(#linearGradient8153);fill-opacity:1;stroke:#204a87;stroke-width:1.0000006;stroke-miterlimit:4;stroke-opacity:1" id="path8131" d="M 6.5212485,8.6870017 L 6.5212485,7.2959006 C 6.5212485,6.8593016 6.7106737,6.5078152 6.945969,6.5078152 L 13.104407,6.5078152 C 13.339702,6.5078152 13.529127,6.8593016 13.529127,7.2959006 L 13.529127,8.6870017"/><rect style="opacity:.8;fill:none;fill-opacity:1;stroke:url(#linearGradient8155);stroke-width:1.00000107;stroke-miterlimit:4;stroke-dasharray:none;stroke-opacity:1" id="rect8133" width="5.022" height="4.016" x="7.509" y="7.503"/><rect id="rect8135" width="5.003" height="3.188" x="11.5" y="6.312" style="fill:url(#linearGradient8157);fill-opacity:1;stroke:#888a85;stroke-width:1.00000036;stroke-miterlimit:4;stroke-dasharray:none;stroke-opacity:1"/><path id="path8137" d="M 11.5,7.0251603 L 11.5,6.0594726 C 11.5,5.7563901 11.635545,5.5123918 11.803913,5.5123918 L 16.210627,5.5123918 C 16.378995,5.5123918 16.514539,5.7563901 16.514539,6.0594726 L 16.514539,7.0251603" style="fill:url(#linearGradient8159);fill-opacity:1;stroke:#204a87;stroke-width:1.00000036;stroke-miterlimit:4;stroke-opacity:1"/><rect id="rect8139" width="3.006" height="1.993" x="12.504" y="6.522" style="opacity:.8;fill:none;fill-opacity:1;stroke:url(#linearGradient8161);stroke-width:1.00000083;stroke-miterlimit:4;stroke-dasharray:none;stroke-opacity:1"/></g><path style="fill:url(#linearGradient9003);fill-opacity:1;fill-rule:evenodd;stroke:url(#linearGradient9005);stroke-width:1;stroke-linecap:round;stroke-linejoin:round;marker:none;marker-start:none;marker-mid:none;marker-end:none;stroke-miterlimit:4;stroke-dasharray:none;stroke-dashoffset:0;stroke-opacity:1;visibility:visible;display:inline;overflow:visible" id="path2201" d="M 7.4688375,16.197164 L 9.5387966,14.09505 L 11.989277,16.523455 L 12.578054,17.125147 L 15.090018,19.547147 L 13.025585,21.489188 L 19.610911,21.497615 L 19.576614,14.851041 L 17.562028,16.953154 L 15.108394,14.493504 L 14.522769,13.923056 L 12.041546,11.497853 L 14.126617,9.399291 L 7.5085391,9.3896297 L 7.4688375,16.197164 z"/><path style="opacity:.3;fill:none;fill-opacity:1;fill-rule:evenodd;stroke:url(#linearGradient9001);stroke-width:1.18870938;stroke-linecap:round;stroke-linejoin:miter;marker:none;marker-start:none;marker-mid:none;marker-end:none;stroke-miterlimit:4;stroke-dasharray:none;stroke-dashoffset:0;stroke-opacity:1;visibility:visible;display:inline;overflow:visible" id="path8999" d="M 8.5,9.5 L 8.46875,13.90625 L 9.15625,13.21875 C 9.3461799,13.026822 9.6049822,12.918829 9.875,12.918829 C 10.145018,12.918829 10.40382,13.026822 10.59375,13.21875 L 13.40625,16.03125 L 14.09375,16.71875 L 17,19.53125 C 17.187859,19.725322 17.290267,19.986484 17.284397,20.256522 C 17.278526,20.52656 17.164865,20.783026 16.96875,20.96875 L 16.40625,21.5 L 20.5,21.5 L 20.46875,17.3125 L 19.875,17.9375 C 19.689276,18.133615 19.43281,18.247276 19.162772,18.253147 C 18.892734,18.259017 18.631572,18.156609 18.4375,17.96875 L 15.59375,15.125 L 14.9375,14.46875 C 14.927084,14.468911 14.916666,14.468911 14.90625,14.46875 L 12.03125,11.65625 C 11.839322,11.46632 11.731329,11.207518 11.731329,10.9375 C 11.731329,10.667482 11.839322,10.40868 12.03125,10.21875 L 12.71875,9.53125 L 8.5,9.5 z" transform="matrix(0.8425929,0,0,0.8399062,1.338349,2.4264482)"/></svg>