<svg xmlns="http://www.w3.org/2000/svg" xmlns:svg="http://www.w3.org/2000/svg" xmlns:xlink="http://www.w3.org/1999/xlink" id="svg7226" width="48" height="48"><defs id="defs7228"><linearGradient id="linearGradient3338"><stop style="stop-color:#eeeeec;stop-opacity:1" id="stop3340" offset="0"/><stop id="stop3346" offset=".789" style="stop-color:#fff;stop-opacity:1"/><stop style="stop-color:#eeeeec;stop-opacity:1" id="stop3342" offset="1"/></linearGradient><linearGradient id="linearGradient7240" x1="31.994" x2="37.724" y1="16.859" y2="16.859" gradientUnits="userSpaceOnUse" xlink:href="#linearGradient3338"/><linearGradient id="linearGradient3220"><stop style="stop-color:#2e3436;stop-opacity:1" id="stop3222" offset="0"/><stop id="stop3228" offset=".644" style="stop-color:#888a85;stop-opacity:1"/><stop style="stop-color:#555753;stop-opacity:1" id="stop3224" offset="1"/></linearGradient><linearGradient id="linearGradient7238" x1="42.906" x2="44.813" y1="42.219" y2="41.406" gradientTransform="translate(0.5359996,-1.5010031)" gradientUnits="userSpaceOnUse" xlink:href="#linearGradient3220"/><linearGradient id="linearGradient3241"><stop style="stop-color:#1b1f20;stop-opacity:1" id="stop3243" offset="0"/><stop style="stop-color:#babdb6;stop-opacity:1" id="stop3245" offset="1"/></linearGradient><linearGradient id="linearGradient7236" x1="39" x2="36.375" y1="26.125" y2="20.438" gradientTransform="translate(0.5359996,-1.5010031)" gradientUnits="userSpaceOnUse" xlink:href="#linearGradient3241"/><linearGradient id="linearGradient3251"><stop style="stop-color:#fff;stop-opacity:1" id="stop3253" offset="0"/><stop style="stop-color:#fff;stop-opacity:0" id="stop3255" offset="1"/></linearGradient><radialGradient id="radialGradient7234" cx="32.5" cy="16.563" r="14.438" fx="32.5" fy="16.563" gradientUnits="userSpaceOnUse" xlink:href="#linearGradient3251"/><linearGradient id="linearGradient3339"><stop style="stop-color:#fff;stop-opacity:1" id="stop3341" offset="0"/><stop style="stop-color:#fff;stop-opacity:0" id="stop3343" offset="1"/></linearGradient><linearGradient id="linearGradient7232" x1="31" x2="3.259" y1="12.875" y2="24.894" gradientTransform="translate(0.5359996,5.4989969)" gradientUnits="userSpaceOnUse" xlink:href="#linearGradient3339"/><linearGradient id="linearGradient6264"><stop style="stop-color:#fff;stop-opacity:1" id="stop6266" offset="0"/><stop style="stop-color:#fff;stop-opacity:0" id="stop6268" offset="1"/></linearGradient><linearGradient id="linearGradient6270" x1="25" x2="25.286" y1="-.051" y2="57.714" gradientUnits="userSpaceOnUse" xlink:href="#linearGradient6264"/><linearGradient id="linearGradient7990"><stop style="stop-color:#3465a4;stop-opacity:1" id="stop7992" offset="0"/><stop style="stop-color:#204a87;stop-opacity:1" id="stop7994" offset="1"/></linearGradient><linearGradient id="linearGradient7996" x1="20" x2="20" y1="4" y2="44" gradientUnits="userSpaceOnUse" xlink:href="#linearGradient7990"/><linearGradient id="linearGradient6252"><stop style="stop-color:#8fb3d9;stop-opacity:1" id="stop6254" offset="0"/><stop id="stop7998" offset=".25" style="stop-color:#729fcf;stop-opacity:1"/><stop style="stop-color:#3465a4;stop-opacity:1" id="stop8000" offset=".68"/><stop style="stop-color:#204a87;stop-opacity:1" id="stop6256" offset="1"/></linearGradient><radialGradient id="radialGradient8002" cx="25" cy="4.312" r="19.997" fx="25" fy="4.312" gradientTransform="matrix(1.2164839e-2,2.5850739,-3.2504984,1.5296213e-2,38.710996,-60.386921)" gradientUnits="userSpaceOnUse" xlink:href="#linearGradient6252"/><radialGradient id="radialGradient9190" cx="605.714" cy="486.648" r="117.143" fx="605.714" fy="486.648" gradientTransform="matrix(-2.774389,0,0,1.969706,112.7623,-872.8854)" gradientUnits="userSpaceOnUse" xlink:href="#linearGradient5060"/><linearGradient id="linearGradient5060"><stop style="stop-color:black;stop-opacity:1" id="stop5062" offset="0"/><stop style="stop-color:black;stop-opacity:0" id="stop5064" offset="1"/></linearGradient><radialGradient id="radialGradient9188" cx="605.714" cy="486.648" r="117.143" fx="605.714" fy="486.648" gradientTransform="matrix(2.774389,0,0,1.969706,-1891.633,-872.8854)" gradientUnits="userSpaceOnUse" xlink:href="#linearGradient5060"/><linearGradient id="linearGradient5048"><stop style="stop-color:black;stop-opacity:0" id="stop5050" offset="0"/><stop id="stop5056" offset=".5" style="stop-color:black;stop-opacity:1"/><stop style="stop-color:black;stop-opacity:0" id="stop5052" offset="1"/></linearGradient><linearGradient id="linearGradient9186" x1="302.857" x2="302.857" y1="366.648" y2="609.505" gradientTransform="matrix(2.774389,0,0,1.969706,-1892.179,-872.8854)" gradientUnits="userSpaceOnUse" xlink:href="#linearGradient5048"/></defs><metadata id="metadata7231"/><g id="layer1"><g id="g13071" transform="matrix(2.3640267e-2,0,0,2.2995369e-2,45.026495,39.465331)" style="display:inline"><rect id="rect13073" width="1339.633" height="478.357" x="-1559.252" y="-150.697" style="opacity:.40206185;fill:url(#linearGradient9186);fill-opacity:1;fill-rule:nonzero;stroke:none;stroke-width:1;stroke-linecap:round;stroke-linejoin:miter;marker:none;marker-start:none;marker-mid:none;marker-end:none;stroke-miterlimit:4;stroke-dasharray:none;stroke-dashoffset:0;stroke-opacity:1;visibility:visible;display:inline;overflow:visible"/><path id="path13075" d="M -219.61876,-150.68038 C -219.61876,-150.68038 -219.61876,327.65041 -219.61876,327.65041 C -76.744594,328.55086 125.78146,220.48075 125.78138,88.454235 C 125.78138,-43.572302 -33.655436,-150.68036 -219.61876,-150.68038 z" style="opacity:.40206185;fill:url(#radialGradient9188);fill-opacity:1;fill-rule:nonzero;stroke:none;stroke-width:1;stroke-linecap:round;stroke-linejoin:miter;marker:none;marker-start:none;marker-mid:none;marker-end:none;stroke-miterlimit:4;stroke-dasharray:none;stroke-dashoffset:0;stroke-opacity:1;visibility:visible;display:inline;overflow:visible"/><path style="opacity:.40206185;fill:url(#radialGradient9190);fill-opacity:1;fill-rule:nonzero;stroke:none;stroke-width:1;stroke-linecap:round;stroke-linejoin:miter;marker:none;marker-start:none;marker-mid:none;marker-end:none;stroke-miterlimit:4;stroke-dasharray:none;stroke-dashoffset:0;stroke-opacity:1;visibility:visible;display:inline;overflow:visible" id="path13077" d="M -1559.2523,-150.68038 C -1559.2523,-150.68038 -1559.2523,327.65041 -1559.2523,327.65041 C -1702.1265,328.55086 -1904.6525,220.48075 -1904.6525,88.454235 C -1904.6525,-43.572302 -1745.2157,-150.68036 -1559.2523,-150.68038 z"/></g><rect style="opacity:1;fill:url(#radialGradient8002);fill-opacity:1;fill-rule:nonzero;stroke:url(#linearGradient7996);stroke-width:1;stroke-linecap:butt;stroke-linejoin:round;stroke-miterlimit:4;stroke-dasharray:none;stroke-opacity:1" id="rect5480" width="38.994" height="39.006" x="4.499" y="4.501" rx="2.478" ry="2.49"/><rect style="opacity:.5;fill:none;fill-opacity:1;fill-rule:nonzero;stroke:url(#linearGradient6270);stroke-width:1;stroke-linecap:butt;stroke-linejoin:round;stroke-miterlimit:4;stroke-dasharray:none;stroke-opacity:1" id="rect6260" width="36.997" height="37.007" x="5.502" y="5.49" rx="1.507" ry="1.497"/><rect style="fill:none;fill-opacity:.75;fill-rule:evenodd;stroke:none;stroke-width:1px;stroke-linecap:butt;stroke-linejoin:miter;stroke-opacity:1" id="rect4784" width="48" height="48" x="0" y="4"/><path style="opacity:.44444442;fill:url(#linearGradient7232);fill-opacity:1;fill-rule:evenodd;stroke:none;stroke-width:1px;stroke-linecap:butt;stroke-linejoin:miter;stroke-opacity:1;display:inline" id="path3337" d="M 0.91099965,27.748998 C 28.15259,29.47655 10.984791,13.750064 32.035999,13.248998 L 37.325213,24.364037 C 27.718749,19.884726 21.14768,42.897034 0.78599965,29.373998 L 0.91099965,27.748998 z"/><path style="opacity:1;fill:url(#radialGradient7234);fill-opacity:1;stroke:none;stroke-width:5;stroke-linecap:round;stroke-linejoin:round;stroke-miterlimit:4;stroke-dasharray:none;stroke-dashoffset:0;stroke-opacity:1;display:inline" id="path3249" d="M 46.9375,16.5625 A 14.4375,14.4375 0 1 1 18.0625,16.5625 A 14.4375,14.4375 0 1 1 46.9375,16.5625 z" transform="matrix(0.6659299,0,0,0.6659299,11.393279,4.9070349)"/><path style="fill:none;fill-opacity:1;fill-rule:evenodd;stroke:url(#linearGradient7236);stroke-width:4;stroke-linecap:round;stroke-linejoin:miter;stroke-miterlimit:4;stroke-dasharray:none;stroke-opacity:1;display:inline" id="path3218" d="M 33.035999,14.998998 L 46.035999,43.998999"/><path style="fill:#fff;fill-opacity:1;fill-rule:evenodd;stroke:url(#linearGradient7238);stroke-width:2;stroke-linecap:round;stroke-linejoin:miter;stroke-miterlimit:4;stroke-dasharray:none;stroke-opacity:1;display:inline" id="path2243" d="M 33.035999,14.998998 L 46.035999,43.998999"/><path style="opacity:1;fill:#fff;fill-opacity:1;stroke:none;stroke-width:4;stroke-linecap:round;stroke-linejoin:round;stroke-miterlimit:4;stroke-dasharray:none;stroke-dashoffset:0;stroke-opacity:1;display:inline" id="path3331" d="M 15.5,24.75 L 11.728554,24.195391 L 9.4510341,27.075687 L 8.8130572,23.317446 L 5.3699407,22.041456 L 8.7470953,20.273343 L 8.8966522,16.604442 L 11.621825,19.26993 L 15.157373,18.278415 L 13.464468,21.693889 L 15.5,24.75 z" transform="matrix(1.2726133,0,0,1.2726133,12.072081,-6.6736441)"/><path style="opacity:1;fill:#fff;fill-opacity:1;stroke:none;stroke-width:4;stroke-linecap:round;stroke-linejoin:round;stroke-miterlimit:4;stroke-dasharray:none;stroke-dashoffset:0;stroke-opacity:1;display:inline" id="path3333" d="M 15.5,24.75 L 11.728554,24.195391 L 9.4510341,27.075687 L 8.8130572,23.317446 L 5.3699407,22.041456 L 8.7470953,20.273343 L 8.8966522,16.604442 L 11.621825,19.26993 L 15.157373,18.278415 L 13.464468,21.693889 L 15.5,24.75 z" transform="matrix(0.5838837,0.5838837,-0.5838837,0.5838837,24.481283,9.4773739)"/><path style="opacity:1;fill:#fff;fill-opacity:1;stroke:none;stroke-width:4;stroke-linecap:round;stroke-linejoin:round;stroke-miterlimit:4;stroke-dasharray:none;stroke-dashoffset:0;stroke-opacity:1;display:inline" id="path3335" d="M 15.5,24.75 L 11.728554,24.195391 L 9.4510341,27.075687 L 8.8130572,23.317446 L 5.3699407,22.041456 L 8.7470953,20.273343 L 8.8966522,16.604442 L 11.621825,19.26993 L 15.157373,18.278415 L 13.464468,21.693889 L 15.5,24.75 z" transform="matrix(0.5791026,0.1286037,-0.1286037,0.5791026,5.2445836,16.598497)"/><path style="fill:url(#linearGradient7240);fill-opacity:1;fill-rule:evenodd;stroke:none;stroke-width:2;stroke-linecap:round;stroke-linejoin:miter;stroke-miterlimit:4;stroke-dasharray:none;stroke-opacity:1;display:inline" id="path3336" d="M 32.9375,11.9375 C 32.879389,11.943775 32.841679,11.954412 32.78125,11.96875 C 32.480508,12.044301 32.224153,12.283065 32.09375,12.5625 C 31.963347,12.841935 31.958934,13.12817 32.09375,13.40625 L 35.84375,21.75 C 35.837094,21.759353 35.837094,21.771897 35.84375,21.78125 C 35.853103,21.787906 35.865647,21.787906 35.875,21.78125 C 35.884353,21.787906 35.896897,21.787906 35.90625,21.78125 C 35.912906,21.771897 35.912906,21.759353 35.90625,21.75 C 36.140708,21.344226 36.483208,21.082875 36.9375,20.96875 C 37.186308,20.909716 37.448221,20.917711 37.6875,20.96875 C 37.696853,20.975406 37.709397,20.975406 37.71875,20.96875 C 37.725406,20.959397 37.725406,20.946853 37.71875,20.9375 L 33.96875,12.59375 C 33.824845,12.242701 33.483751,11.983006 33.125,11.9375 C 33.064511,11.929827 32.995611,11.931225 32.9375,11.9375 z" transform="translate(5.668649e-3,1.9989969)"/></g></svg>